<svg width="402" height="874" viewBox="0 0 402 874" fill="none" xmlns="http://www.w3.org/2000/svg">
<g clip-path="url(#clip0_119_157)">
<rect width="402" height="874" fill="#6BC2DA"/>
<path d="M344.516 -68.9151C346.35 -72.6313 351.65 -72.6313 353.484 -68.9151L406.615 38.7411C407.343 40.2168 408.751 41.2397 410.38 41.4763L529.185 58.7398C533.287 59.3357 534.924 64.3755 531.957 67.2682L445.988 151.067C444.81 152.216 444.272 153.871 444.55 155.493L464.844 273.818C465.545 277.903 461.258 281.017 457.59 279.089L351.327 223.223C349.87 222.457 348.13 222.457 346.673 223.223L240.41 279.089C236.742 281.017 232.455 277.903 233.156 273.818L253.45 155.493C253.728 153.871 253.19 152.216 252.012 151.067L166.043 67.2682C163.076 64.3755 164.713 59.3357 168.815 58.7398L287.62 41.4763C289.249 41.2397 290.657 40.2168 291.385 38.7411L344.516 -68.9151Z" fill="white"/>
<path d="M152.516 142.085C154.35 138.369 159.65 138.369 161.484 142.085L170.531 160.417C171.26 161.893 172.667 162.916 174.296 163.153L194.527 166.092C198.628 166.688 200.266 171.728 197.298 174.621L182.659 188.891C181.48 190.039 180.943 191.694 181.221 193.316L184.677 213.466C185.377 217.55 181.09 220.665 177.422 218.736L159.327 209.223C157.87 208.457 156.13 208.457 154.673 209.223L136.578 218.736C132.91 220.665 128.623 217.55 129.323 213.466L132.779 193.316C133.057 191.694 132.52 190.039 131.341 188.891L116.702 174.621C113.734 171.728 115.372 166.688 119.473 166.092L139.704 163.153C141.333 162.916 142.74 161.893 143.469 160.417L152.516 142.085Z" fill="white"/>
<path d="M332.516 621.085C334.35 617.369 339.65 617.369 341.484 621.085L350.531 639.417C351.26 640.893 352.667 641.916 354.296 642.153L374.527 645.092C378.628 645.688 380.266 650.728 377.298 653.621L362.659 667.891C361.48 669.039 360.943 670.694 361.221 672.316L364.677 692.466C365.377 696.55 361.09 699.665 357.422 697.736L339.327 688.223C337.87 687.457 336.13 687.457 334.673 688.223L316.578 697.736C312.91 699.665 308.623 696.55 309.323 692.466L312.779 672.316C313.057 670.694 312.52 669.039 311.341 667.891L296.702 653.621C293.734 650.728 295.372 645.688 299.473 645.092L319.704 642.153C321.333 641.916 322.74 640.893 323.469 639.417L332.516 621.085Z" fill="white"/>
<path d="M50.5163 31.0849C52.3504 27.3687 57.6496 27.3687 59.4837 31.0849L68.5313 49.4174C69.2596 50.8931 70.6674 51.9159 72.296 52.1526L92.527 55.0923C96.6281 55.6882 98.2657 60.7281 95.2981 63.6208L80.6588 77.8906C79.4803 79.0393 78.9426 80.6943 79.2208 82.3162L82.6767 102.466C83.3772 106.55 79.09 109.665 75.4219 107.736L57.3267 98.2232C55.8701 97.4574 54.1299 97.4574 52.6733 98.2232L34.5781 107.736C30.91 109.665 26.6228 106.55 27.3234 102.466L30.7792 82.3163C31.0574 80.6943 30.5197 79.0393 29.3412 77.8906L14.7019 63.6208C11.7343 60.7281 13.3719 55.6882 17.473 55.0923L37.704 52.1526C39.3326 51.9159 40.7404 50.8931 41.4687 49.4174L50.5163 31.0849Z" fill="white"/>
<path d="M102.516 609.085C104.35 605.369 109.65 605.369 111.484 609.085L164.615 716.741C165.343 718.217 166.751 719.24 168.38 719.476L287.185 736.74C291.287 737.336 292.924 742.376 289.957 745.268L203.988 829.067C202.81 830.216 202.272 831.871 202.55 833.493L222.844 951.818C223.545 955.903 219.258 959.017 215.59 957.089L109.327 901.223C107.87 900.457 106.13 900.457 104.673 901.223L-1.58969 957.089C-5.25783 959.017 -9.54499 955.903 -8.84444 951.818L11.45 833.493C11.7282 831.871 11.1904 830.216 10.012 829.067L-75.9566 745.268C-78.9241 742.376 -77.2866 737.336 -73.1855 736.74L45.6201 719.476C47.2487 719.24 48.6565 718.217 49.3848 716.741L102.516 609.085Z" fill="white"/>
</g>
<defs>
<clipPath id="clip0_119_157">
<rect width="402" height="874" fill="white"/>
</clipPath>
</defs>
</svg>
