<svg width="402" height="360" viewBox="0 0 402 360" fill="none" xmlns="http://www.w3.org/2000/svg">
<mask id="path-1-outside-1_280_34" maskUnits="userSpaceOnUse" x="107" y="16" width="199" height="94" fill="black">
<rect fill="white" x="107" y="16" width="199" height="94"/>
<path d="M146.594 100V57C146.594 54.6667 146.66 51.9333 146.794 48.8C146.994 45.6 147.127 42.8 147.194 40.4H146.794C145.86 42.5333 144.894 44.6667 143.894 46.8C142.894 48.9333 141.86 51.0667 140.794 53.2L132.294 67.9H171.394V81.4H115.294V69.1L141.194 25.5H163.194V100H146.594ZM206.531 101.4C201.331 101.4 196.731 99.9333 192.731 97C188.798 94.0667 185.698 89.7 183.431 83.9C181.231 78.1 180.131 70.9333 180.131 62.4C180.131 53.8667 181.231 46.7667 183.431 41.1C185.698 35.4333 188.798 31.2 192.731 28.4C196.731 25.6 201.331 24.2 206.531 24.2C211.798 24.2 216.398 25.6333 220.331 28.5C224.265 31.3 227.331 35.5333 229.531 41.2C231.731 46.8 232.831 53.8667 232.831 62.4C232.831 70.9333 231.731 78.1 229.531 83.9C227.331 89.7 224.265 94.0667 220.331 97C216.398 99.9333 211.798 101.4 206.531 101.4ZM206.531 87.6C208.331 87.6 209.931 86.9333 211.331 85.6C212.798 84.2 213.931 81.7 214.731 78.1C215.598 74.4333 216.031 69.2 216.031 62.4C216.031 55.6 215.598 50.4333 214.731 46.9C213.931 43.3667 212.798 40.9667 211.331 39.7C209.931 38.4333 208.331 37.8 206.531 37.8C204.798 37.8 203.198 38.4333 201.731 39.7C200.265 40.9667 199.098 43.3667 198.231 46.9C197.365 50.4333 196.931 55.6 196.931 62.4C196.931 69.2 197.365 74.4333 198.231 78.1C199.098 81.7 200.265 84.2 201.731 85.6C203.198 86.9333 204.798 87.6 206.531 87.6ZM272.469 100V57C272.469 54.6667 272.535 51.9333 272.669 48.8C272.869 45.6 273.002 42.8 273.069 40.4H272.669C271.735 42.5333 270.769 44.6667 269.769 46.8C268.769 48.9333 267.735 51.0667 266.669 53.2L258.169 67.9H297.269V81.4H241.169V69.1L267.069 25.5H289.069V100H272.469Z"/>
</mask>
<path d="M146.594 100V57C146.594 54.6667 146.66 51.9333 146.794 48.8C146.994 45.6 147.127 42.8 147.194 40.4H146.794C145.86 42.5333 144.894 44.6667 143.894 46.8C142.894 48.9333 141.86 51.0667 140.794 53.2L132.294 67.9H171.394V81.4H115.294V69.1L141.194 25.5H163.194V100H146.594ZM206.531 101.4C201.331 101.4 196.731 99.9333 192.731 97C188.798 94.0667 185.698 89.7 183.431 83.9C181.231 78.1 180.131 70.9333 180.131 62.4C180.131 53.8667 181.231 46.7667 183.431 41.1C185.698 35.4333 188.798 31.2 192.731 28.4C196.731 25.6 201.331 24.2 206.531 24.2C211.798 24.2 216.398 25.6333 220.331 28.5C224.265 31.3 227.331 35.5333 229.531 41.2C231.731 46.8 232.831 53.8667 232.831 62.4C232.831 70.9333 231.731 78.1 229.531 83.9C227.331 89.7 224.265 94.0667 220.331 97C216.398 99.9333 211.798 101.4 206.531 101.4ZM206.531 87.6C208.331 87.6 209.931 86.9333 211.331 85.6C212.798 84.2 213.931 81.7 214.731 78.1C215.598 74.4333 216.031 69.2 216.031 62.4C216.031 55.6 215.598 50.4333 214.731 46.9C213.931 43.3667 212.798 40.9667 211.331 39.7C209.931 38.4333 208.331 37.8 206.531 37.8C204.798 37.8 203.198 38.4333 201.731 39.7C200.265 40.9667 199.098 43.3667 198.231 46.9C197.365 50.4333 196.931 55.6 196.931 62.4C196.931 69.2 197.365 74.4333 198.231 78.1C199.098 81.7 200.265 84.2 201.731 85.6C203.198 86.9333 204.798 87.6 206.531 87.6ZM272.469 100V57C272.469 54.6667 272.535 51.9333 272.669 48.8C272.869 45.6 273.002 42.8 273.069 40.4H272.669C271.735 42.5333 270.769 44.6667 269.769 46.8C268.769 48.9333 267.735 51.0667 266.669 53.2L258.169 67.9H297.269V81.4H241.169V69.1L267.069 25.5H289.069V100H272.469Z" fill="white"/>
<path d="M146.594 100H138.594V108H146.594V100ZM146.794 48.8L138.809 48.301L138.804 48.3804L138.801 48.4599L146.794 48.8ZM147.194 40.4L155.191 40.6221L155.419 32.4H147.194V40.4ZM146.794 40.4V32.4H141.562L139.464 37.1934L146.794 40.4ZM143.894 46.8L151.137 50.1955L151.137 50.1955L143.894 46.8ZM140.794 53.2L147.719 57.2046L147.841 56.9946L147.949 56.7777L140.794 53.2ZM132.294 67.9L125.368 63.8954L118.427 75.9H132.294V67.9ZM171.394 67.9H179.394V59.9H171.394V67.9ZM171.394 81.4V89.4H179.394V81.4H171.394ZM115.294 81.4H107.294V89.4H115.294V81.4ZM115.294 69.1L108.416 65.0142L107.294 66.903V69.1H115.294ZM141.194 25.5V17.5H136.641L134.316 21.4142L141.194 25.5ZM163.194 25.5H171.194V17.5H163.194V25.5ZM163.194 100V108H171.194V100H163.194ZM146.594 100H154.594V57H146.594H138.594V100H146.594ZM146.594 57H154.594C154.594 54.8109 154.656 52.1959 154.787 49.1401L146.794 48.8L138.801 48.4599C138.664 51.6708 138.594 54.5224 138.594 57H146.594ZM146.794 48.8L154.778 49.299C154.982 46.0352 155.121 43.1391 155.191 40.6221L147.194 40.4L139.197 40.1779C139.133 42.4609 139.005 45.1648 138.809 48.301L146.794 48.8ZM147.194 40.4V32.4H146.794V40.4V48.4H147.194V40.4ZM146.794 40.4L139.464 37.1934C138.559 39.2627 137.621 41.3331 136.65 43.4045L143.894 46.8L151.137 50.1955C152.166 48.0003 153.162 45.804 154.123 43.6065L146.794 40.4ZM143.894 46.8L136.65 43.4045C135.679 45.476 134.675 47.5486 133.638 49.6223L140.794 53.2L147.949 56.7777C149.046 54.5847 150.108 52.3907 151.137 50.1955L143.894 46.8ZM140.794 53.2L133.868 49.1954L125.368 63.8954L132.294 67.9L139.219 71.9046L147.719 57.2046L140.794 53.2ZM132.294 67.9V75.9H171.394V67.9V59.9H132.294V67.9ZM171.394 67.9H163.394V81.4H171.394H179.394V67.9H171.394ZM171.394 81.4V73.4H115.294V81.4V89.4H171.394V81.4ZM115.294 81.4H123.294V69.1H115.294H107.294V81.4H115.294ZM115.294 69.1L122.172 73.1858L148.072 29.5858L141.194 25.5L134.316 21.4142L108.416 65.0142L115.294 69.1ZM141.194 25.5V33.5H163.194V25.5V17.5H141.194V25.5ZM163.194 25.5H155.194V100H163.194H171.194V25.5H163.194ZM163.194 100V92H146.594V100V108H163.194V100ZM192.731 97L187.949 103.413L187.974 103.432L188 103.451L192.731 97ZM183.431 83.9L175.951 86.7372L175.965 86.7747L175.98 86.812L183.431 83.9ZM183.431 41.1L176.003 38.1289L175.988 38.1667L175.974 38.2047L183.431 41.1ZM192.731 28.4L188.144 21.8461L188.118 21.8643L188.092 21.8827L192.731 28.4ZM220.331 28.5L215.619 34.9651L215.655 34.9914L215.692 35.0173L220.331 28.5ZM229.531 41.2L222.074 44.0953L222.079 44.1103L222.085 44.1252L229.531 41.2ZM229.531 83.9L222.051 81.0628L222.051 81.0628L229.531 83.9ZM220.331 97L215.549 90.587L215.549 90.587L220.331 97ZM211.331 85.6L216.848 91.3931L216.855 91.3868L211.331 85.6ZM214.731 78.1L206.946 76.2598L206.933 76.3121L206.922 76.3646L214.731 78.1ZM214.731 46.9L206.929 48.6666L206.945 48.7363L206.962 48.8058L214.731 46.9ZM211.331 39.7L205.964 45.6323L206.032 45.6942L206.102 45.7546L211.331 39.7ZM201.731 39.7L196.502 33.6454L196.502 33.6454L201.731 39.7ZM198.231 46.9L206.001 48.8058L206.001 48.8058L198.231 46.9ZM198.231 78.1L190.446 79.9402L190.45 79.9563L190.453 79.9724L198.231 78.1ZM201.731 85.6L196.207 91.3868L196.278 91.454L196.35 91.5195L201.731 85.6ZM206.531 101.4V93.4C202.945 93.4 200.021 92.4252 197.462 90.5488L192.731 97L188 103.451C193.442 107.441 199.717 109.4 206.531 109.4V101.4ZM192.731 97L197.514 90.587C195.064 88.7598 192.75 85.7657 190.882 80.988L183.431 83.9L175.98 86.812C178.646 93.6343 182.532 99.3735 187.949 103.413L192.731 97ZM183.431 83.9L190.911 81.0628C189.158 76.4397 188.131 70.3029 188.131 62.4H180.131H172.131C172.131 71.5638 173.305 79.7603 175.951 86.7372L183.431 83.9ZM180.131 62.4H188.131C188.131 54.4871 189.161 48.4473 190.889 43.9953L183.431 41.1L175.974 38.2047C173.302 45.086 172.131 53.2463 172.131 62.4H180.131ZM183.431 41.1L190.859 44.0711C192.705 39.4553 194.98 36.6192 197.371 34.9173L192.731 28.4L188.092 21.8827C182.616 25.7808 178.69 31.4114 176.003 38.1289L183.431 41.1ZM192.731 28.4L197.319 34.9539C199.885 33.1578 202.86 32.2 206.531 32.2V24.2V16.2C199.803 16.2 193.578 18.0422 188.144 21.8461L192.731 28.4ZM206.531 24.2V32.2C210.251 32.2 213.169 33.1791 215.619 34.9651L220.331 28.5L225.043 22.0348C219.627 18.0876 213.345 16.2 206.531 16.2V24.2ZM220.331 28.5L215.692 35.0173C218.059 36.7023 220.293 39.5088 222.074 44.0953L229.531 41.2L236.989 38.3047C234.37 31.5579 230.47 25.8977 224.971 21.9827L220.331 28.5ZM229.531 41.2L222.085 44.1252C223.8 48.4912 224.831 54.4816 224.831 62.4H232.831H240.831C240.831 53.2517 239.662 45.1088 236.977 38.2748L229.531 41.2ZM232.831 62.4H224.831C224.831 70.3029 223.805 76.4397 222.051 81.0628L229.531 83.9L237.011 86.7372C239.658 79.7603 240.831 71.5638 240.831 62.4H232.831ZM229.531 83.9L222.051 81.0628C220.25 85.8122 217.975 88.7772 215.549 90.587L220.331 97L225.114 103.413C230.554 99.3562 234.413 93.5878 237.011 86.7372L229.531 83.9ZM220.331 97L215.549 90.587C213.101 92.4125 210.209 93.4 206.531 93.4V101.4V109.4C213.387 109.4 219.695 107.454 225.114 103.413L220.331 97ZM206.531 87.6V95.6C210.547 95.6 214.082 94.0279 216.848 91.3931L211.331 85.6L205.814 79.8069C205.742 79.8758 205.802 79.7997 206.004 79.7154C206.1 79.6757 206.202 79.6445 206.304 79.6245C206.406 79.6046 206.485 79.6 206.531 79.6V87.6ZM211.331 85.6L216.855 91.3868C220.074 88.3139 221.64 83.8869 222.541 79.8354L214.731 78.1L206.922 76.3646C206.604 77.7964 206.271 78.7628 205.995 79.3719C205.711 79.9987 205.588 80.0227 205.807 79.8132L211.331 85.6ZM214.731 78.1L222.517 79.9402C223.597 75.3712 224.031 69.4091 224.031 62.4H216.031H208.031C208.031 68.9909 207.599 73.4954 206.946 76.2598L214.731 78.1ZM216.031 62.4H224.031C224.031 55.4104 223.6 49.4752 222.501 44.9942L214.731 46.9L206.962 48.8058C207.596 51.3914 208.031 55.7896 208.031 62.4H216.031ZM214.731 46.9L222.534 45.1334C221.639 41.1832 220.037 36.6478 216.56 33.6454L211.331 39.7L206.102 45.7546C205.739 45.4411 205.792 45.3251 206.047 45.866C206.293 46.387 206.614 47.278 206.929 48.6666L214.731 46.9ZM211.331 39.7L216.699 33.7677C213.906 31.2415 210.419 29.8 206.531 29.8V37.8V45.8C206.51 45.8 206.456 45.7979 206.379 45.7835C206.301 45.7689 206.218 45.7454 206.137 45.7134C205.963 45.6446 205.906 45.5797 205.964 45.6323L211.331 39.7ZM206.531 37.8V29.8C202.649 29.8 199.239 31.2823 196.502 33.6454L201.731 39.7L206.96 45.7546C207.1 45.6341 207.107 45.6613 206.976 45.7134C206.913 45.7382 206.836 45.7617 206.75 45.7781C206.663 45.7945 206.588 45.8 206.531 45.8V37.8ZM201.731 39.7L196.502 33.6454C193.083 36.5988 191.426 41.0612 190.462 44.9942L198.231 46.9L206.001 48.8058C206.345 47.4051 206.686 46.4931 206.951 45.9475C207.227 45.3796 207.297 45.4641 206.96 45.7546L201.731 39.7ZM198.231 46.9L190.462 44.9942C189.362 49.4752 188.931 55.4104 188.931 62.4H196.931H204.931C204.931 55.7896 205.367 51.3914 206.001 48.8058L198.231 46.9ZM196.931 62.4H188.931C188.931 69.4091 189.366 75.3712 190.446 79.9402L198.231 78.1L206.017 76.2598C205.363 73.4954 204.931 68.9909 204.931 62.4H196.931ZM198.231 78.1L190.453 79.9724C191.424 84.0049 193.04 88.3636 196.207 91.3868L201.731 85.6L207.255 79.8132C207.45 79.9991 207.31 79.9446 207.006 79.2919C206.71 78.6588 206.357 77.6719 206.009 76.2276L198.231 78.1ZM201.731 85.6L196.35 91.5195C199.063 93.9858 202.522 95.6 206.531 95.6V87.6V79.6C206.614 79.6 206.715 79.6083 206.825 79.6304C206.935 79.6524 207.032 79.6835 207.108 79.7154C207.267 79.7814 207.263 79.8176 207.113 79.6805L201.731 85.6ZM272.469 100H264.469V108H272.469V100ZM272.669 48.8L264.684 48.301L264.679 48.3804L264.676 48.4599L272.669 48.8ZM273.069 40.4L281.066 40.6221L281.294 32.4H273.069V40.4ZM272.669 40.4V32.4H267.437L265.339 37.1934L272.669 40.4ZM269.769 46.8L277.012 50.1955L277.012 50.1955L269.769 46.8ZM266.669 53.2L273.594 57.2046L273.716 56.9946L273.824 56.7777L266.669 53.2ZM258.169 67.9L251.243 63.8954L244.302 75.9H258.169V67.9ZM297.269 67.9H305.269V59.9H297.269V67.9ZM297.269 81.4V89.4H305.269V81.4H297.269ZM241.169 81.4H233.169V89.4H241.169V81.4ZM241.169 69.1L234.291 65.0142L233.169 66.903V69.1H241.169ZM267.069 25.5V17.5H262.516L260.191 21.4142L267.069 25.5ZM289.069 25.5H297.069V17.5H289.069V25.5ZM289.069 100V108H297.069V100H289.069ZM272.469 100H280.469V57H272.469H264.469V100H272.469ZM272.469 57H280.469C280.469 54.8109 280.531 52.1959 280.662 49.1401L272.669 48.8L264.676 48.4599C264.539 51.6708 264.469 54.5224 264.469 57H272.469ZM272.669 48.8L280.653 49.299C280.857 46.0352 280.996 43.1391 281.066 40.6221L273.069 40.4L265.072 40.1779C265.008 42.4609 264.88 45.1648 264.684 48.301L272.669 48.8ZM273.069 40.4V32.4H272.669V40.4V48.4H273.069V40.4ZM272.669 40.4L265.339 37.1934C264.434 39.2627 263.496 41.3331 262.525 43.4045L269.769 46.8L277.012 50.1955C278.041 48.0003 279.037 45.804 279.998 43.6065L272.669 40.4ZM269.769 46.8L262.525 43.4045C261.554 45.476 260.55 47.5486 259.513 49.6223L266.669 53.2L273.824 56.7777C274.921 54.5847 275.983 52.3907 277.012 50.1955L269.769 46.8ZM266.669 53.2L259.743 49.1954L251.243 63.8954L258.169 67.9L265.094 71.9046L273.594 57.2046L266.669 53.2ZM258.169 67.9V75.9H297.269V67.9V59.9H258.169V67.9ZM297.269 67.9H289.269V81.4H297.269H305.269V67.9H297.269ZM297.269 81.4V73.4H241.169V81.4V89.4H297.269V81.4ZM241.169 81.4H249.169V69.1H241.169H233.169V81.4H241.169ZM241.169 69.1L248.047 73.1858L273.947 29.5858L267.069 25.5L260.191 21.4142L234.291 65.0142L241.169 69.1ZM267.069 25.5V33.5H289.069V25.5V17.5H267.069V25.5ZM289.069 25.5H281.069V100H289.069H297.069V25.5H289.069ZM289.069 100V92H272.469V100V108H289.069V100Z" fill="black" mask="url(#path-1-outside-1_280_34)"/>
<mask id="path-3-outside-2_280_34" maskUnits="userSpaceOnUse" x="22" y="136" width="374" height="214" fill="black">
<rect fill="white" x="22" y="136" width="374" height="214"/>
<path d="M105.129 220V145.5H123.329L141.829 181.2L149.129 197.7H149.629C149.163 193.767 148.629 189.333 148.029 184.4C147.496 179.4 147.229 174.667 147.229 170.2V145.5H164.229V220H146.029L127.629 184.1L120.329 167.8H119.829C120.229 171.933 120.696 176.433 121.229 181.3C121.829 186.1 122.129 190.767 122.129 195.3V220H105.129ZM214.196 221.4C207.463 221.4 201.53 219.867 196.396 216.8C191.263 213.667 187.263 209.2 184.396 203.4C181.53 197.533 180.096 190.533 180.096 182.4C180.096 174.267 181.53 167.367 184.396 161.7C187.263 155.967 191.263 151.633 196.396 148.7C201.53 145.7 207.463 144.2 214.196 144.2C220.996 144.2 226.93 145.7 231.996 148.7C237.13 151.7 241.13 156.033 243.996 161.7C246.863 167.367 248.296 174.267 248.296 182.4C248.296 190.533 246.863 197.533 243.996 203.4C241.13 209.2 237.13 213.667 231.996 216.8C226.93 219.867 220.996 221.4 214.196 221.4ZM214.196 206C217.463 206 220.263 205.033 222.596 203.1C224.996 201.167 226.83 198.433 228.096 194.9C229.43 191.367 230.096 187.2 230.096 182.4C230.096 177.6 229.43 173.5 228.096 170.1C226.83 166.633 224.996 164 222.596 162.2C220.263 160.4 217.463 159.5 214.196 159.5C210.93 159.5 208.096 160.4 205.696 162.2C203.363 164 201.563 166.633 200.296 170.1C199.03 173.5 198.396 177.6 198.396 182.4C198.396 187.2 199.03 191.367 200.296 194.9C201.563 198.433 203.363 201.167 205.696 203.1C208.096 205.033 210.93 206 214.196 206ZM274.506 220V160.4H254.406V145.5H312.606V160.4H292.406V220H274.506ZM30.3012 340V265.5H77.8012V280.4H48.2012V296.7H73.6012V311.6H48.2012V340H30.3012ZM121.497 341.4C114.764 341.4 108.831 339.867 103.697 336.8C98.5639 333.667 94.5639 329.2 91.6973 323.4C88.8306 317.533 87.3973 310.533 87.3973 302.4C87.3973 294.267 88.8306 287.367 91.6973 281.7C94.5639 275.967 98.5639 271.633 103.697 268.7C108.831 265.7 114.764 264.2 121.497 264.2C128.297 264.2 134.231 265.7 139.297 268.7C144.431 271.7 148.431 276.033 151.297 281.7C154.164 287.367 155.597 294.267 155.597 302.4C155.597 310.533 154.164 317.533 151.297 323.4C148.431 329.2 144.431 333.667 139.297 336.8C134.231 339.867 128.297 341.4 121.497 341.4ZM121.497 326C124.764 326 127.564 325.033 129.897 323.1C132.297 321.167 134.131 318.433 135.397 314.9C136.731 311.367 137.397 307.2 137.397 302.4C137.397 297.6 136.731 293.5 135.397 290.1C134.131 286.633 132.297 284 129.897 282.2C127.564 280.4 124.764 279.5 121.497 279.5C118.231 279.5 115.397 280.4 112.997 282.2C110.664 284 108.864 286.633 107.597 290.1C106.331 293.5 105.697 297.6 105.697 302.4C105.697 307.2 106.331 311.367 107.597 314.9C108.864 318.433 110.664 321.167 112.997 323.1C115.397 325.033 118.231 326 121.497 326ZM201.211 341.4C196.211 341.4 191.811 340.7 188.011 339.3C184.277 337.833 181.144 335.633 178.611 332.7C176.077 329.7 174.177 325.9 172.911 321.3C171.644 316.7 171.011 311.267 171.011 305V265.5H188.811V306.9C188.811 311.567 189.277 315.3 190.211 318.1C191.144 320.9 192.511 322.933 194.311 324.2C196.177 325.4 198.477 326 201.211 326C203.944 326 206.244 325.4 208.111 324.2C209.977 322.933 211.377 320.9 212.311 318.1C213.311 315.3 213.811 311.567 213.811 306.9V265.5H231.011V305C231.011 311.267 230.377 316.7 229.111 321.3C227.911 325.9 226.044 329.7 223.511 332.7C221.044 335.633 217.944 337.833 214.211 339.3C210.477 340.7 206.144 341.4 201.211 341.4ZM249.68 340V265.5H267.88L286.38 301.2L293.68 317.7H294.18C293.713 313.767 293.18 309.333 292.58 304.4C292.047 299.4 291.78 294.667 291.78 290.2V265.5H308.78V340H290.58L272.18 304.1L264.88 287.8H264.38C264.78 291.933 265.247 296.433 265.78 301.3C266.38 306.1 266.68 310.767 266.68 315.3V340H249.68ZM328.047 340V265.5H349.447C357.047 265.5 363.647 266.8 369.247 269.4C374.914 271.933 379.314 275.9 382.447 281.3C385.581 286.7 387.147 293.733 387.147 302.4C387.147 311 385.581 318.1 382.447 323.7C379.381 329.233 375.081 333.333 369.547 336C364.081 338.667 357.714 340 350.447 340H328.047ZM345.947 325.6H348.347C352.347 325.6 355.881 324.9 358.947 323.5C362.081 322.1 364.514 319.7 366.247 316.3C367.981 312.9 368.847 308.267 368.847 302.4C368.847 296.467 367.981 291.867 366.247 288.6C364.514 285.333 362.081 283.067 358.947 281.8C355.881 280.467 352.347 279.8 348.347 279.8H345.947V325.6Z"/>
</mask>
<path d="M105.129 220V145.5H123.329L141.829 181.2L149.129 197.7H149.629C149.163 193.767 148.629 189.333 148.029 184.4C147.496 179.4 147.229 174.667 147.229 170.2V145.5H164.229V220H146.029L127.629 184.1L120.329 167.8H119.829C120.229 171.933 120.696 176.433 121.229 181.3C121.829 186.1 122.129 190.767 122.129 195.3V220H105.129ZM214.196 221.4C207.463 221.4 201.53 219.867 196.396 216.8C191.263 213.667 187.263 209.2 184.396 203.4C181.53 197.533 180.096 190.533 180.096 182.4C180.096 174.267 181.53 167.367 184.396 161.7C187.263 155.967 191.263 151.633 196.396 148.7C201.53 145.7 207.463 144.2 214.196 144.2C220.996 144.2 226.93 145.7 231.996 148.7C237.13 151.7 241.13 156.033 243.996 161.7C246.863 167.367 248.296 174.267 248.296 182.4C248.296 190.533 246.863 197.533 243.996 203.4C241.13 209.2 237.13 213.667 231.996 216.8C226.93 219.867 220.996 221.4 214.196 221.4ZM214.196 206C217.463 206 220.263 205.033 222.596 203.1C224.996 201.167 226.83 198.433 228.096 194.9C229.43 191.367 230.096 187.2 230.096 182.4C230.096 177.6 229.43 173.5 228.096 170.1C226.83 166.633 224.996 164 222.596 162.2C220.263 160.4 217.463 159.5 214.196 159.5C210.93 159.5 208.096 160.4 205.696 162.2C203.363 164 201.563 166.633 200.296 170.1C199.03 173.5 198.396 177.6 198.396 182.4C198.396 187.2 199.03 191.367 200.296 194.9C201.563 198.433 203.363 201.167 205.696 203.1C208.096 205.033 210.93 206 214.196 206ZM274.506 220V160.4H254.406V145.5H312.606V160.4H292.406V220H274.506ZM30.3012 340V265.5H77.8012V280.4H48.2012V296.7H73.6012V311.6H48.2012V340H30.3012ZM121.497 341.4C114.764 341.4 108.831 339.867 103.697 336.8C98.5639 333.667 94.5639 329.2 91.6973 323.4C88.8306 317.533 87.3973 310.533 87.3973 302.4C87.3973 294.267 88.8306 287.367 91.6973 281.7C94.5639 275.967 98.5639 271.633 103.697 268.7C108.831 265.7 114.764 264.2 121.497 264.2C128.297 264.2 134.231 265.7 139.297 268.7C144.431 271.7 148.431 276.033 151.297 281.7C154.164 287.367 155.597 294.267 155.597 302.4C155.597 310.533 154.164 317.533 151.297 323.4C148.431 329.2 144.431 333.667 139.297 336.8C134.231 339.867 128.297 341.4 121.497 341.4ZM121.497 326C124.764 326 127.564 325.033 129.897 323.1C132.297 321.167 134.131 318.433 135.397 314.9C136.731 311.367 137.397 307.2 137.397 302.4C137.397 297.6 136.731 293.5 135.397 290.1C134.131 286.633 132.297 284 129.897 282.2C127.564 280.4 124.764 279.5 121.497 279.5C118.231 279.5 115.397 280.4 112.997 282.2C110.664 284 108.864 286.633 107.597 290.1C106.331 293.5 105.697 297.6 105.697 302.4C105.697 307.2 106.331 311.367 107.597 314.9C108.864 318.433 110.664 321.167 112.997 323.1C115.397 325.033 118.231 326 121.497 326ZM201.211 341.4C196.211 341.4 191.811 340.7 188.011 339.3C184.277 337.833 181.144 335.633 178.611 332.7C176.077 329.7 174.177 325.9 172.911 321.3C171.644 316.7 171.011 311.267 171.011 305V265.5H188.811V306.9C188.811 311.567 189.277 315.3 190.211 318.1C191.144 320.9 192.511 322.933 194.311 324.2C196.177 325.4 198.477 326 201.211 326C203.944 326 206.244 325.4 208.111 324.2C209.977 322.933 211.377 320.9 212.311 318.1C213.311 315.3 213.811 311.567 213.811 306.9V265.5H231.011V305C231.011 311.267 230.377 316.7 229.111 321.3C227.911 325.9 226.044 329.7 223.511 332.7C221.044 335.633 217.944 337.833 214.211 339.3C210.477 340.7 206.144 341.4 201.211 341.4ZM249.68 340V265.5H267.88L286.38 301.2L293.68 317.7H294.18C293.713 313.767 293.18 309.333 292.58 304.4C292.047 299.4 291.78 294.667 291.78 290.2V265.5H308.78V340H290.58L272.18 304.1L264.88 287.8H264.38C264.78 291.933 265.247 296.433 265.78 301.3C266.38 306.1 266.68 310.767 266.68 315.3V340H249.68ZM328.047 340V265.5H349.447C357.047 265.5 363.647 266.8 369.247 269.4C374.914 271.933 379.314 275.9 382.447 281.3C385.581 286.7 387.147 293.733 387.147 302.4C387.147 311 385.581 318.1 382.447 323.7C379.381 329.233 375.081 333.333 369.547 336C364.081 338.667 357.714 340 350.447 340H328.047ZM345.947 325.6H348.347C352.347 325.6 355.881 324.9 358.947 323.5C362.081 322.1 364.514 319.7 366.247 316.3C367.981 312.9 368.847 308.267 368.847 302.4C368.847 296.467 367.981 291.867 366.247 288.6C364.514 285.333 362.081 283.067 358.947 281.8C355.881 280.467 352.347 279.8 348.347 279.8H345.947V325.6Z" fill="white"/>
<path d="M105.129 220H97.1293V228H105.129V220ZM105.129 145.5V137.5H97.1293V145.5H105.129ZM123.329 145.5L130.432 141.819L128.194 137.5H123.329V145.5ZM141.829 181.2L149.145 177.963L149.046 177.738L148.932 177.519L141.829 181.2ZM149.129 197.7L141.813 200.937L143.921 205.7H149.129V197.7ZM149.629 197.7V205.7H158.635L157.574 196.757L149.629 197.7ZM148.029 184.4L140.074 185.249L140.081 185.307L140.088 185.366L148.029 184.4ZM147.229 145.5V137.5H139.229V145.5H147.229ZM164.229 145.5H172.229V137.5H164.229V145.5ZM164.229 220V228H172.229V220H164.229ZM146.029 220L138.91 223.649L141.14 228H146.029V220ZM127.629 184.1L120.328 187.37L120.414 187.562L120.51 187.749L127.629 184.1ZM120.329 167.8L127.631 164.53L125.512 159.8H120.329V167.8ZM119.829 167.8V159.8H111.018L111.866 168.571L119.829 167.8ZM121.229 181.3L113.277 182.171L113.284 182.232L113.291 182.292L121.229 181.3ZM122.129 220V228H130.129V220H122.129ZM105.129 220H113.129V145.5H105.129H97.1293V220H105.129ZM105.129 145.5V153.5H123.329V145.5V137.5H105.129V145.5ZM123.329 145.5L116.226 149.181L134.726 184.881L141.829 181.2L148.932 177.519L130.432 141.819L123.329 145.5ZM141.829 181.2L134.513 184.437L141.813 200.937L149.129 197.7L156.445 194.463L149.145 177.963L141.829 181.2ZM149.129 197.7V205.7H149.629V197.7V189.7H149.129V197.7ZM149.629 197.7L157.574 196.757C157.106 192.815 156.572 188.373 155.971 183.434L148.029 184.4L140.088 185.366C140.687 190.293 141.219 194.719 141.685 198.643L149.629 197.7ZM148.029 184.4L155.984 183.551C155.477 178.799 155.229 174.351 155.229 170.2H147.229H139.229C139.229 174.983 139.515 180.001 140.074 185.249L148.029 184.4ZM147.229 170.2H155.229V145.5H147.229H139.229V170.2H147.229ZM147.229 145.5V153.5H164.229V145.5V137.5H147.229V145.5ZM164.229 145.5H156.229V220H164.229H172.229V145.5H164.229ZM164.229 220V212H146.029V220V228H164.229V220ZM146.029 220L153.149 216.351L134.749 180.451L127.629 184.1L120.51 187.749L138.91 223.649L146.029 220ZM127.629 184.1L134.931 180.83L127.631 164.53L120.329 167.8L113.028 171.07L120.328 187.37L127.629 184.1ZM120.329 167.8V159.8H119.829V167.8V175.8H120.329V167.8ZM119.829 167.8L111.866 168.571C112.27 172.743 112.741 177.277 113.277 182.171L121.229 181.3L129.182 180.429C128.651 175.59 128.188 171.124 127.792 167.029L119.829 167.8ZM121.229 181.3L113.291 182.292C113.853 186.785 114.129 191.12 114.129 195.3H122.129H130.129C130.129 190.414 129.806 185.415 129.168 180.308L121.229 181.3ZM122.129 195.3H114.129V220H122.129H130.129V195.3H122.129ZM122.129 220V212H105.129V220V228H122.129V220ZM196.396 216.8L192.228 223.628L192.261 223.648L192.294 223.668L196.396 216.8ZM184.396 203.4L177.209 206.912L177.217 206.928L177.225 206.945L184.396 203.4ZM184.396 161.7L191.535 165.311L191.544 165.295L191.552 165.278L184.396 161.7ZM196.396 148.7L200.366 155.646L200.399 155.627L200.433 155.607L196.396 148.7ZM231.996 148.7L227.921 155.584L227.94 155.595L227.96 155.607L231.996 148.7ZM243.996 161.7L251.135 158.089L251.135 158.089L243.996 161.7ZM243.996 203.4L251.168 206.945L251.176 206.928L251.184 206.912L243.996 203.4ZM231.996 216.8L236.139 223.644L236.152 223.636L236.165 223.628L231.996 216.8ZM222.596 203.1L217.578 196.87L217.535 196.905L217.492 196.94L222.596 203.1ZM228.096 194.9L220.612 192.076L220.588 192.138L220.566 192.2L228.096 194.9ZM228.096 170.1L220.582 172.846L220.615 172.934L220.649 173.021L228.096 170.1ZM222.596 162.2L217.71 168.534L217.753 168.567L217.796 168.6L222.596 162.2ZM205.696 162.2L200.896 155.8L200.853 155.833L200.81 155.866L205.696 162.2ZM200.296 170.1L207.793 172.893L207.802 172.869L207.811 172.846L200.296 170.1ZM200.296 194.9L207.827 192.2L200.296 194.9ZM205.696 203.1L200.592 209.26L200.635 209.295L200.678 209.33L205.696 203.1ZM214.196 221.4V213.4C208.722 213.4 204.242 212.168 200.499 209.932L196.396 216.8L192.294 223.668C198.818 227.566 206.205 229.4 214.196 229.4V221.4ZM196.396 216.8L200.564 209.972C196.821 207.687 193.817 204.406 191.568 199.855L184.396 203.4L177.225 206.945C180.709 213.994 185.705 219.647 192.228 223.628L196.396 216.8ZM184.396 203.4L191.584 199.888C189.367 195.35 188.096 189.608 188.096 182.4H180.096H172.096C172.096 191.459 173.693 199.717 177.209 206.912L184.396 203.4ZM180.096 182.4H188.096C188.096 175.18 189.371 169.589 191.535 165.311L184.396 161.7L177.258 158.089C173.689 165.144 172.096 173.354 172.096 182.4H180.096ZM184.396 161.7L191.552 165.278C193.774 160.833 196.72 157.729 200.366 155.646L196.396 148.7L192.427 141.754C185.807 145.537 180.752 151.101 177.241 158.122L184.396 161.7ZM196.396 148.7L200.433 155.607C204.186 153.414 208.69 152.2 214.196 152.2V144.2V136.2C206.236 136.2 198.874 137.986 192.36 141.793L196.396 148.7ZM214.196 144.2V152.2C219.788 152.2 224.268 153.421 227.921 155.584L231.996 148.7L236.072 141.816C229.591 137.979 222.205 136.2 214.196 136.2V144.2ZM231.996 148.7L227.96 155.607C231.672 157.776 234.637 160.921 236.858 165.311L243.996 161.7L251.135 158.089C247.623 151.146 242.588 145.624 236.033 141.793L231.996 148.7ZM243.996 161.7L236.858 165.311C239.022 169.589 240.296 175.18 240.296 182.4H248.296H256.296C256.296 173.354 254.704 165.144 251.135 158.089L243.996 161.7ZM248.296 182.4H240.296C240.296 189.608 239.026 195.35 236.809 199.888L243.996 203.4L251.184 206.912C254.7 199.717 256.296 191.459 256.296 182.4H248.296ZM243.996 203.4L236.825 199.855C234.576 204.406 231.572 207.687 227.828 209.972L231.996 216.8L236.165 223.628C242.688 219.647 247.684 213.994 251.168 206.945L243.996 203.4ZM231.996 216.8L227.854 209.956C224.213 212.16 219.757 213.4 214.196 213.4V221.4V229.4C222.236 229.4 229.647 227.573 236.139 223.644L231.996 216.8ZM214.196 206V214C219.171 214 223.816 212.479 227.701 209.26L222.596 203.1L217.492 196.94C216.71 197.588 215.756 198 214.196 198V206ZM222.596 203.1L227.615 209.33C231.388 206.291 233.972 202.216 235.627 197.6L228.096 194.9L220.566 192.2C219.687 194.651 218.605 196.043 217.578 196.87L222.596 203.1ZM228.096 194.9L235.581 197.724C237.334 193.081 238.096 187.915 238.096 182.4H230.096H222.096C222.096 186.485 221.526 189.653 220.612 192.076L228.096 194.9ZM230.096 182.4H238.096C238.096 176.898 237.337 171.752 235.544 167.179L228.096 170.1L220.649 173.021C221.522 175.248 222.096 178.302 222.096 182.4H230.096ZM228.096 170.1L235.611 167.354C233.935 162.769 231.295 158.724 227.396 155.8L222.596 162.2L217.796 168.6C218.698 169.276 219.724 170.498 220.582 172.846L228.096 170.1ZM222.596 162.2L227.483 155.866C223.597 152.868 219.029 151.5 214.196 151.5V159.5V167.5C215.898 167.5 216.929 167.932 217.71 168.534L222.596 162.2ZM214.196 159.5V151.5C209.362 151.5 204.806 152.868 200.896 155.8L205.696 162.2L210.496 168.6C211.387 167.932 212.498 167.5 214.196 167.5V159.5ZM205.696 162.2L200.81 155.866C197.01 158.797 194.438 162.824 192.782 167.354L200.296 170.1L207.811 172.846C208.689 170.442 209.716 169.203 210.583 168.534L205.696 162.2ZM200.296 170.1L192.8 167.307C191.112 171.837 190.396 176.937 190.396 182.4H198.396H206.396C206.396 178.263 206.948 175.163 207.793 172.893L200.296 170.1ZM198.396 182.4H190.396C190.396 187.876 191.116 192.997 192.766 197.6L200.296 194.9L207.827 192.2C206.944 189.737 206.396 186.524 206.396 182.4H198.396ZM200.296 194.9L192.766 197.6C194.402 202.163 196.919 206.217 200.592 209.26L205.696 203.1L210.801 196.94C209.807 196.117 208.725 194.704 207.827 192.2L200.296 194.9ZM205.696 203.1L200.678 209.33C204.589 212.481 209.222 214 214.196 214V206V198C212.638 198 211.604 197.586 210.715 196.87L205.696 203.1ZM274.506 220H266.506V228H274.506V220ZM274.506 160.4H282.506V152.4H274.506V160.4ZM254.406 160.4H246.406V168.4H254.406V160.4ZM254.406 145.5V137.5H246.406V145.5H254.406ZM312.606 145.5H320.606V137.5H312.606V145.5ZM312.606 160.4V168.4H320.606V160.4H312.606ZM292.406 160.4V152.4H284.406V160.4H292.406ZM292.406 220V228H300.406V220H292.406ZM274.506 220H282.506V160.4H274.506H266.506V220H274.506ZM274.506 160.4V152.4H254.406V160.4V168.4H274.506V160.4ZM254.406 160.4H262.406V145.5H254.406H246.406V160.4H254.406ZM254.406 145.5V153.5H312.606V145.5V137.5H254.406V145.5ZM312.606 145.5H304.606V160.4H312.606H320.606V145.5H312.606ZM312.606 160.4V152.4H292.406V160.4V168.4H312.606V160.4ZM292.406 160.4H284.406V220H292.406H300.406V160.4H292.406ZM292.406 220V212H274.506V220V228H292.406V220ZM30.3012 340H22.3012V348H30.3012V340ZM30.3012 265.5V257.5H22.3012V265.5H30.3012ZM77.8012 265.5H85.8012V257.5H77.8012V265.5ZM77.8012 280.4V288.4H85.8012V280.4H77.8012ZM48.2012 280.4V272.4H40.2012V280.4H48.2012ZM48.2012 296.7H40.2012V304.7H48.2012V296.7ZM73.6012 296.7H81.6012V288.7H73.6012V296.7ZM73.6012 311.6V319.6H81.6012V311.6H73.6012ZM48.2012 311.6V303.6H40.2012V311.6H48.2012ZM48.2012 340V348H56.2012V340H48.2012ZM30.3012 340H38.3012V265.5H30.3012H22.3012V340H30.3012ZM30.3012 265.5V273.5H77.8012V265.5V257.5H30.3012V265.5ZM77.8012 265.5H69.8012V280.4H77.8012H85.8012V265.5H77.8012ZM77.8012 280.4V272.4H48.2012V280.4V288.4H77.8012V280.4ZM48.2012 280.4H40.2012V296.7H48.2012H56.2012V280.4H48.2012ZM48.2012 296.7V304.7H73.6012V296.7V288.7H48.2012V296.7ZM73.6012 296.7H65.6012V311.6H73.6012H81.6012V296.7H73.6012ZM73.6012 311.6V303.6H48.2012V311.6V319.6H73.6012V311.6ZM48.2012 311.6H40.2012V340H48.2012H56.2012V311.6H48.2012ZM48.2012 340V332H30.3012V340V348H48.2012V340ZM103.697 336.8L99.5293 343.628L99.5617 343.648L99.5944 343.668L103.697 336.8ZM91.6973 323.4L84.5095 326.912L84.5174 326.928L84.5254 326.945L91.6973 323.4ZM91.6973 281.7L98.8358 285.311L98.8443 285.295L98.8527 285.278L91.6973 281.7ZM103.697 268.7L107.666 275.646L107.7 275.627L107.734 275.607L103.697 268.7ZM139.297 268.7L135.221 275.584L135.241 275.595L135.261 275.607L139.297 268.7ZM151.297 281.7L158.436 278.089L158.436 278.089L151.297 281.7ZM151.297 323.4L158.469 326.945L158.477 326.928L158.485 326.912L151.297 323.4ZM139.297 336.8L143.44 343.644L143.453 343.636L143.465 343.628L139.297 336.8ZM129.897 323.1L124.879 316.87L124.836 316.905L124.793 316.94L129.897 323.1ZM135.397 314.9L127.912 312.076L127.889 312.138L127.867 312.2L135.397 314.9ZM135.397 290.1L127.883 292.846L127.915 292.934L127.949 293.021L135.397 290.1ZM129.897 282.2L125.011 288.534L125.054 288.567L125.097 288.6L129.897 282.2ZM112.997 282.2L108.197 275.8L108.154 275.833L108.111 275.866L112.997 282.2ZM107.597 290.1L115.094 292.893L115.103 292.869L115.111 292.846L107.597 290.1ZM107.597 314.9L115.128 312.2L107.597 314.9ZM112.997 323.1L107.893 329.26L107.936 329.295L107.979 329.33L112.997 323.1ZM121.497 341.4V333.4C116.022 333.4 111.542 332.168 107.8 329.932L103.697 336.8L99.5944 343.668C106.119 347.566 113.506 349.4 121.497 349.4V341.4ZM103.697 336.8L107.865 329.972C104.122 327.687 101.118 324.406 98.8691 319.855L91.6973 323.4L84.5254 326.945C88.0097 333.994 93.0059 339.647 99.5293 343.628L103.697 336.8ZM91.6973 323.4L98.8851 319.888C96.6677 315.35 95.3973 309.608 95.3973 302.4H87.3973H79.3973C79.3973 311.459 80.9935 319.717 84.5095 326.912L91.6973 323.4ZM87.3973 302.4H95.3973C95.3973 295.18 96.6718 289.589 98.8358 285.311L91.6973 281.7L84.5587 278.089C80.9893 285.144 79.3973 293.354 79.3973 302.4H87.3973ZM91.6973 281.7L98.8527 285.278C101.075 280.833 104.02 277.729 107.666 275.646L103.697 268.7L99.7282 261.754C93.1076 265.537 88.0527 271.101 84.5418 278.122L91.6973 281.7ZM103.697 268.7L107.734 275.607C111.487 273.414 115.991 272.2 121.497 272.2V264.2V256.2C113.537 256.2 106.174 257.986 99.6607 261.793L103.697 268.7ZM121.497 264.2V272.2C127.089 272.2 131.569 273.421 135.221 275.584L139.297 268.7L143.373 261.816C136.892 257.979 129.506 256.2 121.497 256.2V264.2ZM139.297 268.7L135.261 275.607C138.973 277.776 141.938 280.921 144.159 285.311L151.297 281.7L158.436 278.089C154.923 271.146 149.889 265.624 143.334 261.793L139.297 268.7ZM151.297 281.7L144.159 285.311C146.323 289.589 147.597 295.18 147.597 302.4H155.597H163.597C163.597 293.354 162.005 285.144 158.436 278.089L151.297 281.7ZM155.597 302.4H147.597C147.597 309.608 146.327 315.35 144.109 319.888L151.297 323.4L158.485 326.912C162.001 319.717 163.597 311.459 163.597 302.4H155.597ZM151.297 323.4L144.125 319.855C141.876 324.406 138.873 327.687 135.129 329.972L139.297 336.8L143.465 343.628C149.989 339.647 154.985 333.994 158.469 326.945L151.297 323.4ZM139.297 336.8L135.155 329.956C131.514 332.16 127.057 333.4 121.497 333.4V341.4V349.4C129.537 349.4 136.948 347.573 143.44 343.644L139.297 336.8ZM121.497 326V334C126.471 334 131.117 332.479 135.001 329.26L129.897 323.1L124.793 316.94C124.011 317.588 123.057 318 121.497 318V326ZM129.897 323.1L134.916 329.33C138.689 326.291 141.273 322.216 142.928 317.6L135.397 314.9L127.867 312.2C126.988 314.651 125.906 316.043 124.879 316.87L129.897 323.1ZM135.397 314.9L142.882 317.724C144.634 313.081 145.397 307.915 145.397 302.4H137.397H129.397C129.397 306.485 128.827 309.653 127.912 312.076L135.397 314.9ZM137.397 302.4H145.397C145.397 296.898 144.638 291.752 142.845 287.179L135.397 290.1L127.949 293.021C128.823 295.248 129.397 298.302 129.397 302.4H137.397ZM135.397 290.1L142.911 287.354C141.236 282.769 138.595 278.724 134.697 275.8L129.897 282.2L125.097 288.6C125.999 289.276 127.025 290.498 127.883 292.846L135.397 290.1ZM129.897 282.2L134.784 275.866C130.898 272.868 126.329 271.5 121.497 271.5V279.5V287.5C123.199 287.5 124.23 287.932 125.011 288.534L129.897 282.2ZM121.497 279.5V271.5C116.662 271.5 112.107 272.868 108.197 275.8L112.997 282.2L117.797 288.6C118.688 287.932 119.799 287.5 121.497 287.5V279.5ZM112.997 282.2L108.111 275.866C104.311 278.797 101.738 282.824 100.083 287.354L107.597 290.1L115.111 292.846C115.989 290.442 117.017 289.203 117.884 288.534L112.997 282.2ZM107.597 290.1L100.101 287.307C98.4129 291.837 97.6973 296.937 97.6973 302.4H105.697H113.697C113.697 298.263 114.248 295.163 115.094 292.893L107.597 290.1ZM105.697 302.4H97.6973C97.6973 307.876 98.4164 312.997 100.067 317.6L107.597 314.9L115.128 312.2C114.245 309.737 113.697 306.524 113.697 302.4H105.697ZM107.597 314.9L100.067 317.6C101.702 322.163 104.22 326.217 107.893 329.26L112.997 323.1L118.101 316.94C117.108 316.117 116.025 314.704 115.128 312.2L107.597 314.9ZM112.997 323.1L107.979 329.33C111.89 332.481 116.523 334 121.497 334V326V318C119.939 318 118.905 317.586 118.016 316.87L112.997 323.1ZM188.011 339.3L185.085 346.746L185.165 346.777L185.245 346.807L188.011 339.3ZM178.611 332.7L172.498 337.861L172.527 337.895L172.556 337.929L178.611 332.7ZM172.911 321.3L165.198 323.424L165.198 323.424L172.911 321.3ZM171.011 265.5V257.5H163.011V265.5H171.011ZM188.811 265.5H196.811V257.5H188.811V265.5ZM190.211 318.1L197.8 315.57L197.8 315.57L190.211 318.1ZM194.311 324.2L189.707 330.742L189.844 330.839L189.984 330.929L194.311 324.2ZM208.111 324.2L212.437 330.929L212.52 330.876L212.603 330.82L208.111 324.2ZM212.311 318.1L204.777 315.409L204.748 315.489L204.721 315.57L212.311 318.1ZM213.811 265.5V257.5H205.811V265.5H213.811ZM231.011 265.5H239.011V257.5H231.011V265.5ZM229.111 321.3L221.398 319.176L221.383 319.228L221.37 319.281L229.111 321.3ZM223.511 332.7L217.398 327.539L217.393 327.545L217.388 327.551L223.511 332.7ZM214.211 339.3L217.02 346.791L217.078 346.769L217.136 346.746L214.211 339.3ZM201.211 341.4V333.4C196.941 333.4 193.51 332.801 190.776 331.793L188.011 339.3L185.245 346.807C190.111 348.599 195.48 349.4 201.211 349.4V341.4ZM188.011 339.3L190.936 331.854C188.366 330.845 186.32 329.388 184.665 327.471L178.611 332.7L172.556 337.929C175.967 341.879 180.188 344.822 185.085 346.746L188.011 339.3ZM178.611 332.7L184.723 327.539C183.08 325.593 181.648 322.895 180.623 319.176L172.911 321.3L165.198 323.424C166.707 328.905 169.075 333.807 172.498 337.861L178.611 332.7ZM172.911 321.3L180.623 319.176C179.596 315.445 179.011 310.759 179.011 305H171.011H163.011C163.011 311.774 163.692 317.955 165.198 323.424L172.911 321.3ZM171.011 305H179.011V265.5H171.011H163.011V305H171.011ZM171.011 265.5V273.5H188.811V265.5V257.5H171.011V265.5ZM188.811 265.5H180.811V306.9H188.811H196.811V265.5H188.811ZM188.811 306.9H180.811C180.811 311.988 181.305 316.682 182.621 320.63L190.211 318.1L197.8 315.57C197.249 313.918 196.811 311.146 196.811 306.9H188.811ZM190.211 318.1L182.621 320.63C183.913 324.505 186.1 328.205 189.707 330.742L194.311 324.2L198.914 317.658C198.9 317.647 198.774 317.559 198.575 317.262C198.366 316.952 198.084 316.421 197.8 315.57L190.211 318.1ZM194.311 324.2L189.984 330.929C193.412 333.133 197.3 334 201.211 334V326V318C199.655 318 198.943 317.667 198.637 317.471L194.311 324.2ZM201.211 326V334C205.121 334 209.009 333.133 212.437 330.929L208.111 324.2L203.784 317.471C203.478 317.667 202.766 318 201.211 318V326ZM208.111 324.2L212.603 330.82C216.316 328.3 218.583 324.581 219.9 320.63L212.311 318.1L204.721 315.57C204.172 317.219 203.639 317.566 203.619 317.58L208.111 324.2ZM212.311 318.1L219.844 320.791C221.277 316.779 221.811 312.022 221.811 306.9H213.811H205.811C205.811 311.111 205.344 313.821 204.777 315.409L212.311 318.1ZM213.811 306.9H221.811V265.5H213.811H205.811V306.9H213.811ZM213.811 265.5V273.5H231.011V265.5V257.5H213.811V265.5ZM231.011 265.5H223.011V305H231.011H239.011V265.5H231.011ZM231.011 305H223.011C223.011 310.759 222.425 315.445 221.398 319.176L229.111 321.3L236.823 323.424C238.329 317.955 239.011 311.774 239.011 305H231.011ZM229.111 321.3L221.37 319.281C220.409 322.964 219.016 325.623 217.398 327.539L223.511 332.7L229.623 337.861C233.072 333.777 235.412 328.836 236.851 323.319L229.111 321.3ZM223.511 332.7L217.388 327.551C215.819 329.416 213.838 330.851 211.285 331.854L214.211 339.3L217.136 346.746C222.05 344.815 226.268 341.85 229.633 337.849L223.511 332.7ZM214.211 339.3L211.402 331.809C208.751 332.803 205.404 333.4 201.211 333.4V341.4V349.4C206.884 349.4 212.203 348.597 217.02 346.791L214.211 339.3ZM249.68 340H241.68V348H249.68V340ZM249.68 265.5V257.5H241.68V265.5H249.68ZM267.88 265.5L274.983 261.819L272.745 257.5H267.88V265.5ZM286.38 301.2L293.696 297.963L293.596 297.738L293.483 297.519L286.38 301.2ZM293.68 317.7L286.364 320.937L288.471 325.7H293.68V317.7ZM294.18 317.7V325.7H303.185L302.124 316.757L294.18 317.7ZM292.58 304.4L284.625 305.249L284.631 305.307L284.639 305.366L292.58 304.4ZM291.78 265.5V257.5H283.78V265.5H291.78ZM308.78 265.5H316.78V257.5H308.78V265.5ZM308.78 340V348H316.78V340H308.78ZM290.58 340L283.461 343.649L285.691 348H290.58V340ZM272.18 304.1L264.879 307.37L264.965 307.562L265.061 307.749L272.18 304.1ZM264.88 287.8L272.181 284.53L270.063 279.8H264.88V287.8ZM264.38 287.8V279.8H255.569L256.417 288.571L264.38 287.8ZM265.78 301.3L257.828 302.171L257.834 302.232L257.842 302.292L265.78 301.3ZM266.68 340V348H274.68V340H266.68ZM249.68 340H257.68V265.5H249.68H241.68V340H249.68ZM249.68 265.5V273.5H267.88V265.5V257.5H249.68V265.5ZM267.88 265.5L260.777 269.181L279.277 304.881L286.38 301.2L293.483 297.519L274.983 261.819L267.88 265.5ZM286.38 301.2L279.064 304.437L286.364 320.937L293.68 317.7L300.996 314.463L293.696 297.963L286.38 301.2ZM293.68 317.7V325.7H294.18V317.7V309.7H293.68V317.7ZM294.18 317.7L302.124 316.757C301.657 312.815 301.122 308.373 300.522 303.434L292.58 304.4L284.639 305.366C285.238 310.293 285.77 314.719 286.236 318.643L294.18 317.7ZM292.58 304.4L300.535 303.551C300.028 298.799 299.78 294.351 299.78 290.2H291.78H283.78C283.78 294.983 284.065 300.001 284.625 305.249L292.58 304.4ZM291.78 290.2H299.78V265.5H291.78H283.78V290.2H291.78ZM291.78 265.5V273.5H308.78V265.5V257.5H291.78V265.5ZM308.78 265.5H300.78V340H308.78H316.78V265.5H308.78ZM308.78 340V332H290.58V340V348H308.78V340ZM290.58 340L297.699 336.351L279.299 300.451L272.18 304.1L265.061 307.749L283.461 343.649L290.58 340ZM272.18 304.1L279.481 300.83L272.181 284.53L264.88 287.8L257.579 291.07L264.879 307.37L272.18 304.1ZM264.88 287.8V279.8H264.38V287.8V295.8H264.88V287.8ZM264.38 287.8L256.417 288.571C256.821 292.743 257.291 297.277 257.828 302.171L265.78 301.3L273.732 300.429C273.202 295.59 272.739 291.124 272.343 287.029L264.38 287.8ZM265.78 301.3L257.842 302.292C258.403 306.785 258.68 311.12 258.68 315.3H266.68H274.68C274.68 310.414 274.357 305.415 273.718 300.308L265.78 301.3ZM266.68 315.3H258.68V340H266.68H274.68V315.3H266.68ZM266.68 340V332H249.68V340V348H266.68V340ZM328.047 340H320.047V348H328.047V340ZM328.047 265.5V257.5H320.047V265.5H328.047ZM369.247 269.4L365.878 276.656L365.93 276.68L365.982 276.703L369.247 269.4ZM382.447 281.3L389.367 277.285L389.367 277.285L382.447 281.3ZM382.447 323.7L375.466 319.794L375.458 319.808L375.45 319.822L382.447 323.7ZM369.547 336L366.074 328.793L366.057 328.802L366.04 328.81L369.547 336ZM345.947 325.6H337.947V333.6H345.947V325.6ZM358.947 323.5L355.684 316.196L355.654 316.209L355.625 316.222L358.947 323.5ZM366.247 316.3L359.12 312.666L359.12 312.667L366.247 316.3ZM366.247 288.6L359.18 292.35L359.18 292.35L366.247 288.6ZM358.947 281.8L355.757 289.137L355.853 289.178L355.949 289.217L358.947 281.8ZM345.947 279.8V271.8H337.947V279.8H345.947ZM328.047 340H336.047V265.5H328.047H320.047V340H328.047ZM328.047 265.5V273.5H349.447V265.5V257.5H328.047V265.5ZM349.447 265.5V273.5C356.146 273.5 361.549 274.646 365.878 276.656L369.247 269.4L372.616 262.144C365.746 258.954 357.948 257.5 349.447 257.5V265.5ZM369.247 269.4L365.982 276.703C370.106 278.547 373.232 281.358 375.528 285.315L382.447 281.3L389.367 277.285C385.396 270.442 379.722 265.32 372.512 262.097L369.247 269.4ZM382.447 281.3L375.528 285.315C377.731 289.112 379.147 294.622 379.147 302.4H387.147H395.147C395.147 292.845 393.43 284.288 389.367 277.285L382.447 281.3ZM387.147 302.4H379.147C379.147 310.08 377.742 315.725 375.466 319.794L382.447 323.7L389.429 327.606C393.419 320.475 395.147 311.92 395.147 302.4H387.147ZM382.447 323.7L375.45 319.822C373.16 323.954 370.07 326.868 366.074 328.793L369.547 336L373.02 343.207C380.091 339.799 385.601 334.512 389.445 327.578L382.447 323.7ZM369.547 336L366.04 328.81C361.858 330.85 356.733 332 350.447 332V340V348C358.695 348 366.303 346.484 373.055 343.19L369.547 336ZM350.447 340V332H328.047V340V348H350.447V340ZM345.947 325.6V333.6H348.347V325.6V317.6H345.947V325.6ZM348.347 325.6V333.6C353.283 333.6 357.984 332.734 362.27 330.778L358.947 323.5L355.625 316.222C353.777 317.066 351.412 317.6 348.347 317.6V325.6ZM358.947 323.5L362.211 330.804C367.202 328.574 370.909 324.769 373.375 319.933L366.247 316.3L359.12 312.667C358.118 314.631 356.959 315.626 355.684 316.196L358.947 323.5ZM366.247 316.3L373.375 319.933C375.908 314.964 376.847 308.914 376.847 302.4H368.847H360.847C360.847 307.62 360.053 310.836 359.12 312.666L366.247 316.3ZM368.847 302.4H376.847C376.847 295.867 375.923 289.767 373.314 284.85L366.247 288.6L359.18 292.35C360.038 293.967 360.847 297.067 360.847 302.4H368.847ZM366.247 288.6L373.314 284.85C370.787 280.089 366.993 276.424 361.946 274.383L358.947 281.8L355.949 289.217C357.168 289.71 358.24 290.578 359.18 292.35L366.247 288.6ZM358.947 281.8L362.137 274.463C357.887 272.615 353.233 271.8 348.347 271.8V279.8V287.8C351.461 287.8 353.875 288.318 355.757 289.137L358.947 281.8ZM348.347 279.8V271.8H345.947V279.8V287.8H348.347V279.8ZM345.947 279.8H337.947V325.6H345.947H353.947V279.8H345.947Z" fill="black" mask="url(#path-3-outside-2_280_34)"/>
</svg>
