<svg width="152" height="44" viewBox="0 0 152 44" fill="none" xmlns="http://www.w3.org/2000/svg">
<mask id="path-1-outside-1_1_177" maskUnits="userSpaceOnUse" x="0" y="0" width="152" height="44" fill="black">
<rect fill="white" width="152" height="44"/>
<path d="M13.16 5.96H18.4V10.72C18.4 13.28 18.2133 15.7333 17.84 18.08C17.4933 20.4267 16.8933 22.6133 16.04 24.64C15.2133 26.6667 14.1067 28.4533 12.72 30C11.36 31.52 9.65333 32.7333 7.6 33.64L3.8 28.32C5.56 27.5733 7.04 26.5867 8.24 25.36C9.44 24.1333 10.4 22.7467 11.12 21.2C11.84 19.6267 12.36 17.9467 12.68 16.16C13 14.3733 13.16 12.56 13.16 10.72V5.96ZM14.48 5.96H19.68V10.72C19.68 12.48 19.8267 14.2 20.12 15.88C20.4133 17.56 20.9067 19.1467 21.6 20.64C22.2933 22.1333 23.2133 23.4667 24.36 24.64C25.5333 25.7867 26.9733 26.72 28.68 27.44L24.96 32.68C22.9867 31.8 21.32 30.6267 19.96 29.16C18.6267 27.6667 17.56 25.96 16.76 24.04C15.96 22.12 15.3733 20.0267 15 17.76C14.6533 15.4933 14.48 13.1467 14.48 10.72V5.96ZM29.32 3.2H35.8V40.88H29.32V3.2ZM49.8769 7.08H55.1569V9.08C55.1569 11.48 54.7969 13.7733 54.0769 15.96C53.3835 18.1467 52.2635 20.0667 50.7169 21.72C49.1702 23.3467 47.1169 24.56 44.5569 25.36L41.2369 20.36C43.4502 19.6667 45.1835 18.72 46.4369 17.52C47.6902 16.2933 48.5702 14.9467 49.0769 13.48C49.6102 11.9867 49.8769 10.52 49.8769 9.08V7.08ZM51.1969 7.08H56.4369V9.08C56.4369 10.44 56.6902 11.8267 57.1969 13.24C57.7035 14.6267 58.5702 15.8933 59.7969 17.04C61.0235 18.1867 62.6902 19.0933 64.7969 19.76L61.5169 24.76C59.0369 23.9867 57.0369 22.8 55.5169 21.2C54.0235 19.6 52.9302 17.76 52.2369 15.68C51.5435 13.5733 51.1969 11.3733 51.1969 9.08V7.08ZM42.8769 5.24H63.2769V10.32H42.8769V5.24ZM65.3169 3.28H71.7569V25.88H65.3169V3.28ZM69.9969 11.88H76.4369V17.16H69.9969V11.88ZM46.3569 27.32H71.7569V40.8H65.3169V32.44H46.3569V27.32ZM102.914 3.28H109.354V40.8H102.914V3.28ZM107.914 17.48H114.354V22.8H107.914V17.48ZM79.4337 8.56H101.154V13.64H79.4337V8.56ZM90.3537 15.24C92.1937 15.24 93.8337 15.64 95.2737 16.44C96.7404 17.2133 97.9004 18.28 98.7537 19.64C99.6071 21 100.034 22.5733 100.034 24.36C100.034 26.12 99.6071 27.6933 98.7537 29.08C97.9004 30.44 96.7404 31.52 95.2737 32.32C93.8337 33.0933 92.1804 33.48 90.3137 33.48C88.4737 33.48 86.8204 33.0933 85.3537 32.32C83.8871 31.52 82.7271 30.44 81.8737 29.08C81.0204 27.6933 80.5937 26.12 80.5937 24.36C80.5937 22.5733 81.0204 21 81.8737 19.64C82.7271 18.28 83.8871 17.2133 85.3537 16.44C86.8204 15.64 88.4871 15.24 90.3537 15.24ZM90.3137 20.44C89.6204 20.44 89.0071 20.5867 88.4737 20.88C87.9404 21.1733 87.5137 21.6133 87.1937 22.2C86.9004 22.76 86.7537 23.4667 86.7537 24.32C86.7537 25.2 86.9004 25.9333 87.1937 26.52C87.5137 27.1067 87.9404 27.5467 88.4737 27.84C89.0071 28.1333 89.6204 28.28 90.3137 28.28C91.0071 28.28 91.6204 28.1333 92.1537 27.84C92.6871 27.5467 93.1004 27.1067 93.3937 26.52C93.7137 25.9333 93.8737 25.2 93.8737 24.32C93.8737 23.4667 93.7137 22.76 93.3937 22.2C93.1004 21.6133 92.6871 21.1733 92.1537 20.88C91.6204 20.5867 91.0071 20.44 90.3137 20.44ZM87.0737 3.96H93.5537V10.4H87.0737V3.96ZM142.271 3.24H148.751V40.76H142.271V3.24ZM131.151 7.04H137.551C137.551 10 137.297 12.8 136.791 15.44C136.284 18.08 135.404 20.56 134.151 22.88C132.924 25.2 131.191 27.36 128.951 29.36C126.737 31.3333 123.911 33.1467 120.471 34.8L117.111 29.72C120.711 27.9867 123.524 26.1067 125.551 24.08C127.604 22.0533 129.044 19.7467 129.871 17.16C130.724 14.5733 131.151 11.6 131.151 8.24V7.04ZM119.271 7.04H134.271V12.12H119.271V7.04Z"/>
</mask>
<path d="M13.16 5.96H18.4V10.72C18.4 13.28 18.2133 15.7333 17.84 18.08C17.4933 20.4267 16.8933 22.6133 16.04 24.64C15.2133 26.6667 14.1067 28.4533 12.72 30C11.36 31.52 9.65333 32.7333 7.6 33.64L3.8 28.32C5.56 27.5733 7.04 26.5867 8.24 25.36C9.44 24.1333 10.4 22.7467 11.12 21.2C11.84 19.6267 12.36 17.9467 12.68 16.16C13 14.3733 13.16 12.56 13.16 10.72V5.96ZM14.48 5.96H19.68V10.72C19.68 12.48 19.8267 14.2 20.12 15.88C20.4133 17.56 20.9067 19.1467 21.6 20.64C22.2933 22.1333 23.2133 23.4667 24.36 24.64C25.5333 25.7867 26.9733 26.72 28.68 27.44L24.96 32.68C22.9867 31.8 21.32 30.6267 19.96 29.16C18.6267 27.6667 17.56 25.96 16.76 24.04C15.96 22.12 15.3733 20.0267 15 17.76C14.6533 15.4933 14.48 13.1467 14.48 10.72V5.96ZM29.32 3.2H35.8V40.88H29.32V3.2ZM49.8769 7.08H55.1569V9.08C55.1569 11.48 54.7969 13.7733 54.0769 15.96C53.3835 18.1467 52.2635 20.0667 50.7169 21.72C49.1702 23.3467 47.1169 24.56 44.5569 25.36L41.2369 20.36C43.4502 19.6667 45.1835 18.72 46.4369 17.52C47.6902 16.2933 48.5702 14.9467 49.0769 13.48C49.6102 11.9867 49.8769 10.52 49.8769 9.08V7.08ZM51.1969 7.08H56.4369V9.08C56.4369 10.44 56.6902 11.8267 57.1969 13.24C57.7035 14.6267 58.5702 15.8933 59.7969 17.04C61.0235 18.1867 62.6902 19.0933 64.7969 19.76L61.5169 24.76C59.0369 23.9867 57.0369 22.8 55.5169 21.2C54.0235 19.6 52.9302 17.76 52.2369 15.68C51.5435 13.5733 51.1969 11.3733 51.1969 9.08V7.08ZM42.8769 5.24H63.2769V10.32H42.8769V5.24ZM65.3169 3.28H71.7569V25.88H65.3169V3.28ZM69.9969 11.88H76.4369V17.16H69.9969V11.88ZM46.3569 27.32H71.7569V40.8H65.3169V32.44H46.3569V27.32ZM102.914 3.28H109.354V40.8H102.914V3.28ZM107.914 17.48H114.354V22.8H107.914V17.48ZM79.4337 8.56H101.154V13.64H79.4337V8.56ZM90.3537 15.24C92.1937 15.24 93.8337 15.64 95.2737 16.44C96.7404 17.2133 97.9004 18.28 98.7537 19.64C99.6071 21 100.034 22.5733 100.034 24.36C100.034 26.12 99.6071 27.6933 98.7537 29.08C97.9004 30.44 96.7404 31.52 95.2737 32.32C93.8337 33.0933 92.1804 33.48 90.3137 33.48C88.4737 33.48 86.8204 33.0933 85.3537 32.32C83.8871 31.52 82.7271 30.44 81.8737 29.08C81.0204 27.6933 80.5937 26.12 80.5937 24.36C80.5937 22.5733 81.0204 21 81.8737 19.64C82.7271 18.28 83.8871 17.2133 85.3537 16.44C86.8204 15.64 88.4871 15.24 90.3537 15.24ZM90.3137 20.44C89.6204 20.44 89.0071 20.5867 88.4737 20.88C87.9404 21.1733 87.5137 21.6133 87.1937 22.2C86.9004 22.76 86.7537 23.4667 86.7537 24.32C86.7537 25.2 86.9004 25.9333 87.1937 26.52C87.5137 27.1067 87.9404 27.5467 88.4737 27.84C89.0071 28.1333 89.6204 28.28 90.3137 28.28C91.0071 28.28 91.6204 28.1333 92.1537 27.84C92.6871 27.5467 93.1004 27.1067 93.3937 26.52C93.7137 25.9333 93.8737 25.2 93.8737 24.32C93.8737 23.4667 93.7137 22.76 93.3937 22.2C93.1004 21.6133 92.6871 21.1733 92.1537 20.88C91.6204 20.5867 91.0071 20.44 90.3137 20.44ZM87.0737 3.96H93.5537V10.4H87.0737V3.96ZM142.271 3.24H148.751V40.76H142.271V3.24ZM131.151 7.04H137.551C137.551 10 137.297 12.8 136.791 15.44C136.284 18.08 135.404 20.56 134.151 22.88C132.924 25.2 131.191 27.36 128.951 29.36C126.737 31.3333 123.911 33.1467 120.471 34.8L117.111 29.72C120.711 27.9867 123.524 26.1067 125.551 24.08C127.604 22.0533 129.044 19.7467 129.871 17.16C130.724 14.5733 131.151 11.6 131.151 8.24V7.04ZM119.271 7.04H134.271V12.12H119.271V7.04Z" fill="white"/>
<path d="M13.16 5.96V2.96C11.5031 2.96 10.16 4.30314 10.16 5.96H13.16ZM18.4 5.96H21.4C21.4 4.30314 20.0569 2.96 18.4 2.96V5.96ZM17.84 18.08L14.8773 17.6087C14.8755 17.6196 14.8738 17.6306 14.8722 17.6416L17.84 18.08ZM16.04 24.64L13.2751 23.4758C13.2707 23.4862 13.2664 23.4966 13.2622 23.5069L16.04 24.64ZM12.72 30L10.4863 27.9974L10.4843 27.9996L12.72 30ZM7.6 33.64L5.1588 35.3837C5.98538 36.5409 7.51087 36.9588 8.8118 36.3844L7.6 33.64ZM3.8 28.32L2.62835 25.5583C1.79049 25.9137 1.1593 26.6303 0.912447 27.5063C0.665599 28.3824 0.829789 29.3231 1.3588 30.0637L3.8 28.32ZM8.24 25.36L10.3845 27.4579L10.3845 27.4579L8.24 25.36ZM11.12 21.2L13.8397 22.4661C13.8425 22.4602 13.8452 22.4543 13.8479 22.4484L11.12 21.2ZM12.68 16.16L15.633 16.6889L15.633 16.6889L12.68 16.16ZM14.48 5.96V2.96C12.8231 2.96 11.48 4.30314 11.48 5.96H14.48ZM19.68 5.96H22.68C22.68 4.30314 21.3369 2.96 19.68 2.96V5.96ZM20.12 15.88L23.0753 15.364L23.0753 15.364L20.12 15.88ZM21.6 20.64L24.321 19.3767L24.321 19.3767L21.6 20.64ZM24.36 24.64L22.2144 26.7368C22.2305 26.7532 22.2468 26.7695 22.2632 26.7856L24.36 24.64ZM28.68 27.44L31.1262 29.1766C31.6528 28.4349 31.8144 27.4942 31.5656 26.6193C31.3167 25.7443 30.6842 25.0295 29.8461 24.6759L28.68 27.44ZM24.96 32.68L23.7382 35.4199C25.0437 36.0021 26.5787 35.5823 27.4062 34.4166L24.96 32.68ZM19.96 29.16L17.7222 31.158C17.7347 31.1721 17.7474 31.186 17.7602 31.1998L19.96 29.16ZM16.76 24.04L13.9908 25.1938L13.9908 25.1938L16.76 24.04ZM15 17.76L12.0345 18.2135C12.0362 18.2249 12.038 18.2362 12.0399 18.2475L15 17.76ZM29.32 3.2V0.199999C27.6631 0.199999 26.32 1.54314 26.32 3.2H29.32ZM35.8 3.2H38.8C38.8 1.54314 37.4569 0.199999 35.8 0.199999V3.2ZM35.8 40.88V43.88C37.4569 43.88 38.8 42.5369 38.8 40.88H35.8ZM29.32 40.88H26.32C26.32 42.5369 27.6631 43.88 29.32 43.88V40.88ZM13.16 5.96V8.96H18.4V5.96V2.96H13.16V5.96ZM18.4 5.96H15.4V10.72H18.4H21.4V5.96H18.4ZM18.4 10.72H15.4C15.4 13.1342 15.224 15.4293 14.8773 17.6087L17.84 18.08L20.8027 18.5513C21.2027 16.0373 21.4 13.4258 21.4 10.72H18.4ZM17.84 18.08L14.8722 17.6416C14.5595 19.7582 14.0232 21.6991 13.2751 23.4758L16.04 24.64L18.8049 25.8042C19.7635 23.5276 20.4271 21.0951 20.8078 18.5184L17.84 18.08ZM16.04 24.64L13.2622 23.5069C12.5586 25.2319 11.6309 26.7207 10.4863 27.9974L12.72 30L14.9537 32.0026C16.5825 30.186 17.8681 28.1014 18.8178 25.7731L16.04 24.64ZM12.72 30L10.4843 27.9996C9.43629 29.1709 8.09078 30.1438 6.3882 30.8956L7.6 33.64L8.8118 36.3844C11.2159 35.3228 13.2837 33.8691 14.9557 32.0004L12.72 30ZM7.6 33.64L10.0412 31.8963L6.2412 26.5763L3.8 28.32L1.3588 30.0637L5.1588 35.3837L7.6 33.64ZM3.8 28.32L4.97165 31.0817C7.05494 30.1979 8.87728 28.9986 10.3845 27.4579L8.24 25.36L6.0955 23.2621C5.20272 24.1747 4.06506 24.9487 2.62835 25.5583L3.8 28.32ZM8.24 25.36L10.3845 27.4579C11.8205 25.9899 12.9756 24.3224 13.8397 22.4661L11.12 21.2L8.40025 19.9339C7.8244 21.1709 7.05948 22.2767 6.0955 23.2621L8.24 25.36ZM11.12 21.2L13.8479 22.4484C14.6779 20.6347 15.2707 18.7117 15.633 16.6889L12.68 16.16L9.72699 15.6311C9.44929 17.1816 9.00207 18.6187 8.39208 19.9516L11.12 21.2ZM12.68 16.16L15.633 16.6889C15.9847 14.7253 16.16 12.7349 16.16 10.72H13.16H10.16C10.16 12.3851 10.0153 14.0214 9.72699 15.6311L12.68 16.16ZM13.16 10.72H16.16V5.96H13.16H10.16V10.72H13.16ZM14.48 5.96V8.96H19.68V5.96V2.96H14.48V5.96ZM19.68 5.96H16.68V10.72H19.68H22.68V5.96H19.68ZM19.68 10.72H16.68C16.68 12.6474 16.8407 14.5403 17.1647 16.396L20.12 15.88L23.0753 15.364C22.8126 13.8597 22.68 12.3126 22.68 10.72H19.68ZM20.12 15.88L17.1647 16.396C17.5015 18.325 18.0713 20.1638 18.879 21.9033L21.6 20.64L24.321 19.3767C23.742 18.1295 23.3252 16.795 23.0753 15.364L20.12 15.88ZM21.6 20.64L18.879 21.9033C19.715 23.704 20.8292 25.3194 22.2144 26.7368L24.36 24.64L26.5056 22.5432C25.5974 21.6139 24.8717 20.5627 24.321 19.3767L21.6 20.64ZM24.36 24.64L22.2632 26.7856C23.7377 28.2266 25.5054 29.3568 27.5139 30.2041L28.68 27.44L29.8461 24.6759C28.4413 24.0832 27.3289 23.3468 26.4568 22.4944L24.36 24.64ZM28.68 27.44L26.2338 25.7034L22.5138 30.9434L24.96 32.68L27.4062 34.4166L31.1262 29.1766L28.68 27.44ZM24.96 32.68L26.1819 29.9401C24.5484 29.2117 23.2229 28.2667 22.1598 27.1202L19.96 29.16L17.7602 31.1998C19.4171 32.9866 21.4249 34.3883 23.7382 35.4199L24.96 32.68ZM19.96 29.16L22.1978 27.162C21.0961 25.9281 20.2055 24.5093 19.5292 22.8862L16.76 24.04L13.9908 25.1938C14.9145 27.4107 16.1572 29.4053 17.7222 31.158L19.96 29.16ZM16.76 24.04L19.5292 22.8862C18.8271 21.2011 18.2996 19.3339 17.9601 17.2724L15 17.76L12.0399 18.2475C12.447 20.7194 13.0929 23.0389 13.9908 25.1938L16.76 24.04ZM15 17.76L17.9655 17.3064C17.6431 15.1983 17.48 13.0036 17.48 10.72H14.48H11.48C11.48 13.2897 11.6636 15.7884 12.0345 18.2135L15 17.76ZM14.48 10.72H17.48V5.96H14.48H11.48V10.72H14.48ZM29.32 3.2V6.2H35.8V3.2V0.199999H29.32V3.2ZM35.8 3.2H32.8V40.88H35.8H38.8V3.2H35.8ZM35.8 40.88V37.88H29.32V40.88V43.88H35.8V40.88ZM29.32 40.88H32.32V3.2H29.32H26.32V40.88H29.32ZM49.8769 7.08V4.08C48.22 4.08 46.8769 5.42314 46.8769 7.08H49.8769ZM55.1569 7.08H58.1569C58.1569 5.42314 56.8137 4.08 55.1569 4.08V7.08ZM54.0769 15.96L51.2274 15.0217C51.2239 15.0322 51.2205 15.0427 51.2172 15.0533L54.0769 15.96ZM50.7169 21.72L52.891 23.7872C52.8966 23.7813 52.9021 23.7754 52.9077 23.7695L50.7169 21.72ZM44.5569 25.36L42.0577 27.0195C42.7955 28.1307 44.1785 28.6213 45.4517 28.2234L44.5569 25.36ZM41.2369 20.36L40.3401 17.4972C39.4396 17.7793 38.7243 18.4686 38.4091 19.358C38.094 20.2475 38.2157 21.2334 38.7377 22.0195L41.2369 20.36ZM46.4369 17.52L48.5116 19.6869C48.5195 19.6793 48.5274 19.6717 48.5353 19.664L46.4369 17.52ZM49.0769 13.48L46.2516 12.471C46.2481 12.4808 46.2447 12.4906 46.2413 12.5004L49.0769 13.48ZM51.1969 7.08V4.08C49.54 4.08 48.1969 5.42314 48.1969 7.08H51.1969ZM56.4369 7.08H59.4369C59.4369 5.42314 58.0937 4.08 56.4369 4.08V7.08ZM57.1969 13.24L54.3729 14.2524C54.3749 14.2581 54.377 14.2639 54.3791 14.2696L57.1969 13.24ZM59.7969 17.04L57.7482 19.2316L57.7482 19.2316L59.7969 17.04ZM64.7969 19.76L67.3053 21.4055C67.8204 20.6203 67.9381 19.6391 67.6233 18.7543C67.3084 17.8695 66.5974 17.1832 65.702 16.8998L64.7969 19.76ZM61.5169 24.76L60.6238 27.624C61.9025 28.0227 63.2906 27.5255 64.0253 26.4055L61.5169 24.76ZM55.5169 21.2L53.3237 23.247C53.3297 23.2534 53.3358 23.2598 53.3419 23.2662L55.5169 21.2ZM52.2369 15.68L49.3872 16.6179L49.3908 16.6287L52.2369 15.68ZM42.8769 5.24V2.24C41.22 2.24 39.8769 3.58314 39.8769 5.24H42.8769ZM63.2769 5.24H66.2769C66.2769 3.58314 64.9337 2.24 63.2769 2.24V5.24ZM63.2769 10.32V13.32C64.9337 13.32 66.2769 11.9769 66.2769 10.32H63.2769ZM42.8769 10.32H39.8769C39.8769 11.9769 41.22 13.32 42.8769 13.32V10.32ZM65.3169 3.28V0.279998C63.66 0.279998 62.3169 1.62314 62.3169 3.28H65.3169ZM71.7569 3.28H74.7569C74.7569 1.62314 73.4137 0.279998 71.7569 0.279998V3.28ZM71.7569 25.88V28.88C73.4137 28.88 74.7569 27.5369 74.7569 25.88H71.7569ZM65.3169 25.88H62.3169C62.3169 27.5369 63.66 28.88 65.3169 28.88V25.88ZM69.9969 11.88V8.88C68.34 8.88 66.9969 10.2231 66.9969 11.88H69.9969ZM76.4369 11.88H79.4369C79.4369 10.2231 78.0937 8.88 76.4369 8.88V11.88ZM76.4369 17.16V20.16C78.0937 20.16 79.4369 18.8169 79.4369 17.16H76.4369ZM69.9969 17.16H66.9969C66.9969 18.8169 68.34 20.16 69.9969 20.16V17.16ZM46.3569 27.32V24.32C44.7 24.32 43.3569 25.6631 43.3569 27.32H46.3569ZM71.7569 27.32H74.7569C74.7569 25.6631 73.4137 24.32 71.7569 24.32V27.32ZM71.7569 40.8V43.8C73.4137 43.8 74.7569 42.4569 74.7569 40.8H71.7569ZM65.3169 40.8H62.3169C62.3169 42.4569 63.66 43.8 65.3169 43.8V40.8ZM65.3169 32.44H68.3169C68.3169 30.7831 66.9737 29.44 65.3169 29.44V32.44ZM46.3569 32.44H43.3569C43.3569 34.0969 44.7 35.44 46.3569 35.44V32.44ZM49.8769 7.08V10.08H55.1569V7.08V4.08H49.8769V7.08ZM55.1569 7.08H52.1569V9.08H55.1569H58.1569V7.08H55.1569ZM55.1569 9.08H52.1569C52.1569 11.1749 51.8435 13.1506 51.2274 15.0217L54.0769 15.96L56.9264 16.8983C57.7503 14.3961 58.1569 11.7851 58.1569 9.08H55.1569ZM54.0769 15.96L51.2172 15.0533C50.6571 16.8198 49.7633 18.348 48.5261 19.6705L50.7169 21.72L52.9077 23.7695C54.7638 21.7854 56.11 19.4735 56.9366 16.8667L54.0769 15.96ZM50.7169 21.72L48.5428 19.6528C47.4105 20.8436 45.8297 21.8192 43.662 22.4966L44.5569 25.36L45.4517 28.2234C48.404 27.3008 50.9299 25.8497 52.891 23.7872L50.7169 21.72ZM44.5569 25.36L47.0561 23.7005L43.7361 18.7005L41.2369 20.36L38.7377 22.0195L42.0577 27.0195L44.5569 25.36ZM41.2369 20.36L42.1337 23.2228C44.6463 22.4357 46.8316 21.2954 48.5116 19.6869L46.4369 17.52L44.3622 15.3531C43.5355 16.1446 42.2542 16.8976 40.3401 17.4972L41.2369 20.36ZM46.4369 17.52L48.5353 19.664C50.0777 18.1544 51.235 16.4206 51.9124 14.4596L49.0769 13.48L46.2413 12.5004C45.9054 13.4727 45.3027 14.4323 44.3385 15.376L46.4369 17.52ZM49.0769 13.48L51.9021 14.489C52.5394 12.7045 52.8769 10.8969 52.8769 9.08H49.8769H46.8769C46.8769 10.1431 46.681 11.2688 46.2516 12.471L49.0769 13.48ZM49.8769 9.08H52.8769V7.08H49.8769H46.8769V9.08H49.8769ZM51.1969 7.08V10.08H56.4369V7.08V4.08H51.1969V7.08ZM56.4369 7.08H53.4369V9.08H56.4369H59.4369V7.08H56.4369ZM56.4369 9.08H53.4369C53.4369 10.8191 53.7618 12.5479 54.3729 14.2524L57.1969 13.24L60.0209 12.2276C59.6186 11.1055 59.4369 10.0609 59.4369 9.08H56.4369ZM57.1969 13.24L54.3791 14.2696C55.0683 16.1559 56.2251 17.8078 57.7482 19.2316L59.7969 17.04L61.8455 14.8484C60.9153 13.9789 60.3388 13.0974 60.0147 12.2104L57.1969 13.24ZM59.7969 17.04L57.7482 19.2316C59.3876 20.7641 61.4878 21.8594 63.8917 22.6202L64.7969 19.76L65.702 16.8998C63.8927 16.3272 62.6594 15.6092 61.8455 14.8484L59.7969 17.04ZM64.7969 19.76L62.2884 18.1145L59.0084 23.1145L61.5169 24.76L64.0253 26.4055L67.3053 21.4055L64.7969 19.76ZM61.5169 24.76L62.4099 21.896C60.3314 21.2479 58.8018 20.3021 57.6919 19.1338L55.5169 21.2L53.3419 23.2662C55.2719 25.2979 57.7423 26.7255 60.6238 27.624L61.5169 24.76ZM55.5169 21.2L57.71 19.153C56.5112 17.8686 55.6403 16.4033 55.0829 14.7313L52.2369 15.68L49.3908 16.6287C50.2201 19.1167 51.5359 21.3314 53.3237 23.247L55.5169 21.2ZM52.2369 15.68L55.0865 14.7421C54.4962 12.9484 54.1969 11.0657 54.1969 9.08H51.1969H48.1969C48.1969 11.681 48.5909 14.1983 49.3872 16.6179L52.2369 15.68ZM51.1969 9.08H54.1969V7.08H51.1969H48.1969V9.08H51.1969ZM42.8769 5.24V8.24H63.2769V5.24V2.24H42.8769V5.24ZM63.2769 5.24H60.2769V10.32H63.2769H66.2769V5.24H63.2769ZM63.2769 10.32V7.32H42.8769V10.32V13.32H63.2769V10.32ZM42.8769 10.32H45.8769V5.24H42.8769H39.8769V10.32H42.8769ZM65.3169 3.28V6.28H71.7569V3.28V0.279998H65.3169V3.28ZM71.7569 3.28H68.7569V25.88H71.7569H74.7569V3.28H71.7569ZM71.7569 25.88V22.88H65.3169V25.88V28.88H71.7569V25.88ZM65.3169 25.88H68.3169V3.28H65.3169H62.3169V25.88H65.3169ZM69.9969 11.88V14.88H76.4369V11.88V8.88H69.9969V11.88ZM76.4369 11.88H73.4369V17.16H76.4369H79.4369V11.88H76.4369ZM76.4369 17.16V14.16H69.9969V17.16V20.16H76.4369V17.16ZM69.9969 17.16H72.9969V11.88H69.9969H66.9969V17.16H69.9969ZM46.3569 27.32V30.32H71.7569V27.32V24.32H46.3569V27.32ZM71.7569 27.32H68.7569V40.8H71.7569H74.7569V27.32H71.7569ZM71.7569 40.8V37.8H65.3169V40.8V43.8H71.7569V40.8ZM65.3169 40.8H68.3169V32.44H65.3169H62.3169V40.8H65.3169ZM65.3169 32.44V29.44H46.3569V32.44V35.44H65.3169V32.44ZM46.3569 32.44H49.3569V27.32H46.3569H43.3569V32.44H46.3569ZM102.914 3.28V0.279998C101.257 0.279998 99.9137 1.62314 99.9137 3.28H102.914ZM109.354 3.28H112.354C112.354 1.62314 111.011 0.279998 109.354 0.279998V3.28ZM109.354 40.8V43.8C111.011 43.8 112.354 42.4569 112.354 40.8H109.354ZM102.914 40.8H99.9137C99.9137 42.4569 101.257 43.8 102.914 43.8V40.8ZM107.914 17.48V14.48C106.257 14.48 104.914 15.8231 104.914 17.48H107.914ZM114.354 17.48H117.354C117.354 15.8231 116.011 14.48 114.354 14.48V17.48ZM114.354 22.8V25.8C116.011 25.8 117.354 24.4569 117.354 22.8H114.354ZM107.914 22.8H104.914C104.914 24.4569 106.257 25.8 107.914 25.8V22.8ZM79.4337 8.56V5.56C77.7769 5.56 76.4337 6.90314 76.4337 8.56H79.4337ZM101.154 8.56H104.154C104.154 6.90314 102.811 5.56 101.154 5.56V8.56ZM101.154 13.64V16.64C102.811 16.64 104.154 15.2969 104.154 13.64H101.154ZM79.4337 13.64H76.4337C76.4337 15.2969 77.7769 16.64 79.4337 16.64V13.64ZM95.2737 16.44L93.8168 19.0625C93.8359 19.0731 93.8552 19.0835 93.8745 19.0937L95.2737 16.44ZM98.7537 19.64L96.2126 21.2345L96.2126 21.2345L98.7537 19.64ZM98.7537 29.08L101.295 30.6745C101.3 30.6671 101.304 30.6597 101.309 30.6523L98.7537 29.08ZM95.2737 32.32L96.6931 34.963C96.6989 34.9599 96.7046 34.9568 96.7103 34.9537L95.2737 32.32ZM85.3537 32.32L83.9172 34.9537C83.9296 34.9604 83.942 34.9671 83.9545 34.9737L85.3537 32.32ZM81.8737 29.08L79.3188 30.6523C79.3233 30.6597 79.3279 30.6671 79.3326 30.6745L81.8737 29.08ZM81.8737 19.64L84.4149 21.2345L84.4149 21.2345L81.8737 19.64ZM85.3537 16.44L86.753 19.0937C86.7655 19.0871 86.7779 19.0804 86.7903 19.0737L85.3537 16.44ZM88.4737 20.88L87.028 18.2514L87.028 18.2514L88.4737 20.88ZM87.1937 22.2L84.5601 20.7634C84.552 20.7782 84.5441 20.7931 84.5363 20.808L87.1937 22.2ZM87.1937 26.52L84.5105 27.8616C84.5264 27.8936 84.543 27.9252 84.5601 27.9566L87.1937 26.52ZM88.4737 27.84L87.028 30.4686L87.028 30.4686L88.4737 27.84ZM92.1537 27.84L90.708 25.2114L90.708 25.2114L92.1537 27.84ZM93.3937 26.52L90.7601 25.0834C90.743 25.1148 90.7264 25.1464 90.7105 25.1784L93.3937 26.52ZM93.3937 22.2L90.7105 23.5416C90.7353 23.5913 90.7615 23.6402 90.789 23.6884L93.3937 22.2ZM92.1537 20.88L90.708 23.5086L90.708 23.5086L92.1537 20.88ZM87.0737 3.96V0.959999C85.4169 0.959999 84.0737 2.30314 84.0737 3.96H87.0737ZM93.5537 3.96H96.5537C96.5537 2.30314 95.2106 0.959999 93.5537 0.959999V3.96ZM93.5537 10.4V13.4C95.2106 13.4 96.5537 12.0569 96.5537 10.4H93.5537ZM87.0737 10.4H84.0737C84.0737 12.0569 85.4169 13.4 87.0737 13.4V10.4ZM102.914 3.28V6.28H109.354V3.28V0.279998H102.914V3.28ZM109.354 3.28H106.354V40.8H109.354H112.354V3.28H109.354ZM109.354 40.8V37.8H102.914V40.8V43.8H109.354V40.8ZM102.914 40.8H105.914V3.28H102.914H99.9137V40.8H102.914ZM107.914 17.48V20.48H114.354V17.48V14.48H107.914V17.48ZM114.354 17.48H111.354V22.8H114.354H117.354V17.48H114.354ZM114.354 22.8V19.8H107.914V22.8V25.8H114.354V22.8ZM107.914 22.8H110.914V17.48H107.914H104.914V22.8H107.914ZM79.4337 8.56V11.56H101.154V8.56V5.56H79.4337V8.56ZM101.154 8.56H98.1537V13.64H101.154H104.154V8.56H101.154ZM101.154 13.64V10.64H79.4337V13.64V16.64H101.154V13.64ZM79.4337 13.64H82.4337V8.56H79.4337H76.4337V13.64H79.4337ZM90.3537 15.24V18.24C91.7447 18.24 92.8728 18.538 93.8168 19.0625L95.2737 16.44L96.7307 13.8175C94.7947 12.742 92.6428 12.24 90.3537 12.24V15.24ZM95.2737 16.44L93.8745 19.0937C94.8899 19.6291 95.6494 20.337 96.2126 21.2345L98.7537 19.64L101.295 18.0455C100.151 16.223 98.5909 14.7976 96.673 13.7863L95.2737 16.44ZM98.7537 19.64L96.2126 21.2345C96.733 22.064 97.0337 23.0717 97.0337 24.36H100.034H103.034C103.034 22.0749 102.481 19.936 101.295 18.0455L98.7537 19.64ZM100.034 24.36H97.0337C97.0337 25.6115 96.7376 26.6321 96.1988 27.5077L98.7537 29.08L101.309 30.6523C102.477 28.7546 103.034 26.6285 103.034 24.36H100.034ZM98.7537 29.08L96.2126 27.4855C95.6436 28.3922 94.8718 29.122 93.8372 29.6863L95.2737 32.32L96.7103 34.9537C98.6091 33.918 100.157 32.4878 101.295 30.6745L98.7537 29.08ZM95.2737 32.32L93.8544 29.677C92.9094 30.1845 91.7561 30.48 90.3137 30.48V33.48V36.48C92.6047 36.48 94.7581 36.0021 96.6931 34.963L95.2737 32.32ZM90.3137 33.48V30.48C88.907 30.48 87.7426 30.1881 86.753 29.6663L85.3537 32.32L83.9545 34.9737C85.8982 35.9986 88.0405 36.48 90.3137 36.48V33.48ZM85.3537 32.32L86.7903 29.6863C85.7557 29.122 84.9839 28.3922 84.4149 27.4855L81.8737 29.08L79.3326 30.6745C80.4703 32.4878 82.0184 33.918 83.9172 34.9537L85.3537 32.32ZM81.8737 29.08L84.4287 27.5077C83.8899 26.6321 83.5937 25.6115 83.5937 24.36H80.5937H77.5937C77.5937 26.6285 78.151 28.7546 79.3188 30.6523L81.8737 29.08ZM80.5937 24.36H83.5937C83.5937 23.0717 83.8945 22.064 84.4149 21.2345L81.8737 19.64L79.3326 18.0455C78.1464 19.936 77.5937 22.0749 77.5937 24.36H80.5937ZM81.8737 19.64L84.4149 21.2345C84.9781 20.337 85.7376 19.6291 86.753 19.0937L85.3537 16.44L83.9545 13.7863C82.0366 14.7976 80.4761 16.223 79.3326 18.0455L81.8737 19.64ZM85.3537 16.44L86.7903 19.0737C87.7665 18.5412 88.9291 18.24 90.3537 18.24V15.24V12.24C88.0451 12.24 85.8743 12.7388 83.9172 13.8063L85.3537 16.44ZM90.3137 20.44V17.44C89.1861 17.44 88.0627 17.6823 87.028 18.2514L88.4737 20.88L89.9195 23.5086C89.9514 23.4911 90.0547 23.44 90.3137 23.44V20.44ZM88.4737 20.88L87.028 18.2514C85.9444 18.8473 85.1263 19.7253 84.5601 20.7634L87.1937 22.2L89.8274 23.6366C89.8692 23.5599 89.899 23.5271 89.9075 23.5184C89.9145 23.5112 89.9162 23.5105 89.9195 23.5086L88.4737 20.88ZM87.1937 22.2L84.5363 20.808C83.9532 21.9211 83.7537 23.1438 83.7537 24.32H86.7537H89.7537C89.7537 23.7895 89.8477 23.5989 89.8512 23.592L87.1937 22.2ZM86.7537 24.32H83.7537C83.7537 25.5139 83.9502 26.7411 84.5105 27.8616L87.1937 26.52L89.877 25.1784C89.8506 25.1256 89.7537 24.8861 89.7537 24.32H86.7537ZM87.1937 26.52L84.5601 27.9566C85.1263 28.9947 85.9444 29.8727 87.028 30.4686L88.4737 27.84L89.9195 25.2114C89.9162 25.2095 89.9145 25.2088 89.9075 25.2016C89.899 25.1929 89.8692 25.1601 89.8274 25.0834L87.1937 26.52ZM88.4737 27.84L87.028 30.4686C88.0627 31.0377 89.1861 31.28 90.3137 31.28V28.28V25.28C90.0547 25.28 89.9514 25.2289 89.9195 25.2114L88.4737 27.84ZM90.3137 28.28V31.28C91.4414 31.28 92.5648 31.0377 93.5995 30.4686L92.1537 27.84L90.708 25.2114C90.6761 25.2289 90.5728 25.28 90.3137 25.28V28.28ZM92.1537 27.84L93.5995 30.4686C94.7083 29.8588 95.5336 28.9485 96.077 27.8616L93.3937 26.52L90.7105 25.1784C90.6962 25.207 90.6854 25.2237 90.6801 25.2316C90.6748 25.2392 90.6736 25.2398 90.6772 25.236C90.6809 25.232 90.6867 25.2265 90.6941 25.2208C90.7013 25.2152 90.7066 25.2121 90.708 25.2114L92.1537 27.84ZM93.3937 26.52L96.0274 27.9566C96.652 26.8116 96.8737 25.5483 96.8737 24.32H93.8737H90.8737C90.8737 24.8517 90.7755 25.0551 90.7601 25.0834L93.3937 26.52ZM93.8737 24.32H96.8737C96.8737 23.1079 96.648 21.8483 95.9985 20.7116L93.3937 22.2L90.789 23.6884C90.7795 23.6717 90.8737 23.8254 90.8737 24.32H93.8737ZM93.3937 22.2L96.077 20.8584C95.5336 19.7715 94.7083 18.8612 93.5995 18.2514L92.1537 20.88L90.708 23.5086C90.7066 23.5079 90.7013 23.5048 90.6941 23.4991C90.6867 23.4935 90.6809 23.488 90.6772 23.484C90.6736 23.4802 90.6748 23.4808 90.6801 23.4884C90.6854 23.4963 90.6962 23.513 90.7105 23.5416L93.3937 22.2ZM92.1537 20.88L93.5995 18.2514C92.5648 17.6823 91.4414 17.44 90.3137 17.44V20.44V23.44C90.5728 23.44 90.6761 23.4911 90.708 23.5086L92.1537 20.88ZM87.0737 3.96V6.96H93.5537V3.96V0.959999H87.0737V3.96ZM93.5537 3.96H90.5537V10.4H93.5537H96.5537V3.96H93.5537ZM93.5537 10.4V7.4H87.0737V10.4V13.4H93.5537V10.4ZM87.0737 10.4H90.0737V3.96H87.0737H84.0737V10.4H87.0737ZM142.271 3.24V0.239998C140.614 0.239998 139.271 1.58314 139.271 3.24H142.271ZM148.751 3.24H151.751C151.751 1.58314 150.407 0.239998 148.751 0.239998V3.24ZM148.751 40.76V43.76C150.407 43.76 151.751 42.4169 151.751 40.76H148.751ZM142.271 40.76H139.271C139.271 42.4169 140.614 43.76 142.271 43.76V40.76ZM131.151 7.04V4.04C129.494 4.04 128.151 5.38315 128.151 7.04H131.151ZM137.551 7.04H140.551C140.551 5.38315 139.207 4.04 137.551 4.04V7.04ZM136.791 15.44L133.844 14.8746L133.844 14.8746L136.791 15.44ZM134.151 22.88L131.511 21.4541C131.507 21.4619 131.503 21.4698 131.499 21.4777L134.151 22.88ZM128.951 29.36L130.947 31.5992L130.949 31.5978L128.951 29.36ZM120.471 34.8L117.968 36.455C118.796 37.7055 120.419 38.1534 121.77 37.5039L120.471 34.8ZM117.111 29.72L115.809 27.017C115.029 27.3929 114.449 28.0878 114.218 28.9231C113.988 29.7584 114.13 30.6524 114.608 31.375L117.111 29.72ZM125.551 24.08L123.443 21.9449C123.439 21.9495 123.434 21.9541 123.429 21.9587L125.551 24.08ZM129.871 17.16L127.022 16.2201C127.019 16.229 127.016 16.2379 127.013 16.2467L129.871 17.16ZM119.271 7.04V4.04C117.614 4.04 116.271 5.38315 116.271 7.04H119.271ZM134.271 7.04H137.271C137.271 5.38315 135.927 4.04 134.271 4.04V7.04ZM134.271 12.12V15.12C135.927 15.12 137.271 13.7769 137.271 12.12H134.271ZM119.271 12.12H116.271C116.271 13.7769 117.614 15.12 119.271 15.12V12.12ZM142.271 3.24V6.24H148.751V3.24V0.239998H142.271V3.24ZM148.751 3.24H145.751V40.76H148.751H151.751V3.24H148.751ZM148.751 40.76V37.76H142.271V40.76V43.76H148.751V40.76ZM142.271 40.76H145.271V3.24H142.271H139.271V40.76H142.271ZM131.151 7.04V10.04H137.551V7.04V4.04H131.151V7.04ZM137.551 7.04H134.551C134.551 9.82907 134.312 12.4385 133.844 14.8746L136.791 15.44L139.737 16.0054C140.283 13.1615 140.551 10.1709 140.551 7.04H137.551ZM136.791 15.44L133.844 14.8746C133.394 17.2197 132.616 19.4088 131.511 21.4541L134.151 22.88L136.79 24.3059C138.192 21.7112 139.174 18.9403 139.737 16.0054L136.791 15.44ZM134.151 22.88L131.499 21.4777C130.461 23.4406 128.965 25.3258 126.953 27.1222L128.951 29.36L130.949 31.5978C133.417 29.3942 135.387 26.9594 136.803 24.2823L134.151 22.88ZM128.951 29.36L126.954 27.1208C125 28.8628 122.427 30.5314 119.171 32.0961L120.471 34.8L121.77 37.5039C125.395 35.762 128.474 33.8039 130.947 31.5992L128.951 29.36ZM120.471 34.8L122.973 33.145L119.613 28.065L117.111 29.72L114.608 31.375L117.968 36.455L120.471 34.8ZM117.111 29.72L118.412 32.423C122.206 30.5965 125.333 28.5402 127.672 26.2013L125.551 24.08L123.429 21.9587C121.715 23.6731 119.216 25.3768 115.809 27.017L117.111 29.72ZM125.551 24.08L127.658 26.2151C130.034 23.8697 131.745 21.1507 132.728 18.0733L129.871 17.16L127.013 16.2467C126.343 18.3427 125.174 20.237 123.443 21.9449L125.551 24.08ZM129.871 17.16L132.72 18.0999C133.693 15.1487 134.151 11.8477 134.151 8.24H131.151H128.151C128.151 11.3523 127.755 13.998 127.022 16.2201L129.871 17.16ZM131.151 8.24H134.151V7.04H131.151H128.151V8.24H131.151ZM119.271 7.04V10.04H134.271V7.04V4.04H119.271V7.04ZM134.271 7.04H131.271V12.12H134.271H137.271V7.04H134.271ZM134.271 12.12V9.12H119.271V12.12V15.12H134.271V12.12ZM119.271 12.12H122.271V7.04H119.271H116.271V12.12H119.271Z" fill="black" mask="url(#path-1-outside-1_1_177)"/>
</svg>
