<svg width="76" height="76" viewBox="0 0 76 76" fill="none" xmlns="http://www.w3.org/2000/svg">
<path d="M34.2789 7.43486C35.6106 4.05828 40.3894 4.05828 41.7211 7.43486L48.6763 25.0702C49.0829 26.1011 49.8989 26.9171 50.9298 27.3237L68.5651 34.2789C71.9417 35.6106 71.9417 40.3894 68.5651 41.7211L50.9298 48.6763C49.8989 49.0829 49.0829 49.8989 48.6763 50.9298L41.7211 68.5651C40.3894 71.9417 35.6106 71.9417 34.2789 68.5651L27.3237 50.9298C26.9171 49.8989 26.1011 49.0829 25.0702 48.6763L7.43486 41.7211C4.05828 40.3894 4.05828 35.6106 7.43486 34.2789L25.0702 27.3237C26.1011 26.9171 26.9171 26.1011 27.3237 25.0702L34.2789 7.43486Z" fill="#F4B938" stroke="black" stroke-width="8" stroke-linejoin="round"/>
</svg>
