<svg width="360" height="240" viewBox="0 0 360 240" fill="none" xmlns="http://www.w3.org/2000/svg">
<mask id="path-1-outside-1_198_36" maskUnits="userSpaceOnUse" x="34" y="7" width="286" height="231" fill="black">
<rect fill="white" x="34" y="7" width="286" height="231"/>
<path d="M105.912 15.7H122.112V83.9H105.912V15.7ZM58.4117 95.3H124.212V108.1H58.4117V95.3ZM58.4117 77.2H74.5117V102.1H58.4117V77.2ZM64.2117 20.8H77.5117V29.7C77.5117 35.8333 76.6117 41.7333 74.8117 47.4C73.0784 53 70.2451 57.9333 66.3117 62.2C62.3784 66.4667 57.1451 69.6667 50.6117 71.8L42.5117 59C48.0451 57.2 52.3784 54.7333 55.5117 51.6C58.7117 48.4 60.9451 44.9 62.2117 41.1C63.5451 37.2333 64.2117 33.4333 64.2117 29.7V20.8ZM67.6117 20.8H80.7117V29.7C80.7117 32.5 81.0451 35.3 81.7117 38.1C82.3784 40.8333 83.5117 43.4667 85.1117 46C86.7117 48.4667 88.8451 50.7 91.5117 52.7C94.2451 54.7 97.6117 56.3 101.612 57.5L93.5117 70.3C87.1784 68.3 82.1117 65.2667 78.3117 61.2C74.5117 57.1333 71.7784 52.4 70.1117 47C68.4451 41.5333 67.6117 35.7667 67.6117 29.7V20.8ZM137.604 86.3H222.504V99.3H137.604V86.3ZM172.004 66.6H188.104V89.7H172.004V66.6ZM171.404 28.1H185.004V30.2C185.004 34.2 184.537 38.0333 183.604 41.7C182.671 45.3667 181.204 48.8 179.204 52C177.271 55.1333 174.771 57.9667 171.704 60.5C168.704 63.0333 165.104 65.2333 160.904 67.1C156.771 68.9 152.037 70.2667 146.704 71.2L140.404 58.4C145.137 57.6667 149.237 56.6333 152.704 55.3C156.171 53.9 159.104 52.2667 161.504 50.4C163.904 48.5333 165.804 46.5 167.204 44.3C168.671 42.0333 169.737 39.7333 170.404 37.4C171.071 35 171.404 32.6 171.404 30.2V28.1ZM174.804 28.1H188.404V30.2C188.404 32.6 188.737 34.9667 189.404 37.3C190.071 39.6333 191.137 41.9 192.604 44.1C194.071 46.3 196.004 48.3333 198.404 50.2C200.871 52 203.871 53.5667 207.404 54.9C211.004 56.2333 215.204 57.2333 220.004 57.9L213.804 70.6C208.337 69.6667 203.471 68.3333 199.204 66.6C195.004 64.8 191.371 62.6667 188.304 60.2C185.237 57.6667 182.704 54.8667 180.704 51.8C178.704 48.6667 177.204 45.3 176.204 41.7C175.271 38.0333 174.804 34.2 174.804 30.2V28.1ZM144.604 22H215.204V34.7H144.604V22ZM257.596 21.7C262.329 21.7 266.563 23.1 270.296 25.9C274.029 28.6333 276.963 32.5333 279.096 37.6C281.229 42.6667 282.296 48.6667 282.296 55.6C282.296 62.6 281.229 68.6667 279.096 73.8C276.963 78.8667 274.029 82.8 270.296 85.6C266.563 88.3333 262.329 89.7 257.596 89.7C252.863 89.7 248.629 88.3333 244.896 85.6C241.163 82.8 238.229 78.8667 236.096 73.8C233.963 68.6667 232.896 62.6 232.896 55.6C232.896 48.6667 233.963 42.6667 236.096 37.6C238.229 32.5333 241.163 28.6333 244.896 25.9C248.629 23.1 252.863 21.7 257.596 21.7ZM257.596 36.4C255.729 36.4 254.096 37.1 252.696 38.5C251.296 39.8333 250.196 41.9333 249.396 44.8C248.663 47.6 248.296 51.2 248.296 55.6C248.296 60 248.663 63.6333 249.396 66.5C250.196 69.3667 251.296 71.5 252.696 72.9C254.096 74.3 255.729 75 257.596 75C259.529 75 261.163 74.3 262.496 72.9C263.896 71.5 264.963 69.3667 265.696 66.5C266.496 63.6333 266.896 60 266.896 55.6C266.896 51.2 266.496 47.6 265.696 44.8C264.963 41.9333 263.896 39.8333 262.496 38.5C261.163 37.1 259.529 36.4 257.596 36.4ZM294.996 15.5H311.096V109.7H294.996V15.5ZM277.696 48.3H301.696V61.2H277.696V48.3ZM97.4078 141.3H136.808V154H97.4078V141.3ZM129.708 141.3H145.508V148.1C145.508 152.567 145.341 157.633 145.008 163.3C144.741 168.967 143.708 175.867 141.908 184H125.808C127.741 176 128.874 169.1 129.208 163.3C129.541 157.5 129.708 152.433 129.708 148.1V141.3ZM131.608 160.4V171.9L96.9078 174.7L94.9078 161.5L131.608 160.4ZM111.908 186.9H128.108V224.8H111.908V186.9ZM155.408 135.6H171.608V229.4H155.408V135.6ZM92.0078 194.8L90.1078 181.8C96.2411 181.8 102.708 181.767 109.508 181.7C116.374 181.567 123.341 181.333 130.408 181C137.474 180.6 144.341 180.033 151.008 179.3L152.108 191C145.241 192.067 138.341 192.867 131.408 193.4C124.474 193.933 117.674 194.3 111.008 194.5C104.408 194.633 98.0745 194.733 92.0078 194.8ZM184.6 205.9H269.5V218.9H184.6V205.9ZM218.4 148.8H232V152.8C232 156.8 231.533 160.633 230.6 164.3C229.667 167.967 228.2 171.4 226.2 174.6C224.267 177.733 221.767 180.6 218.7 183.2C215.7 185.733 212.1 187.933 207.9 189.8C203.767 191.6 199.033 192.967 193.7 193.9L187.4 181C192.133 180.267 196.233 179.233 199.7 177.9C203.167 176.5 206.1 174.867 208.5 173C210.9 171.133 212.8 169.1 214.2 166.9C215.667 164.7 216.733 162.4 217.4 160C218.067 157.6 218.4 155.2 218.4 152.8V148.8ZM221.8 148.8H235.4V152.8C235.4 155.2 235.733 157.6 236.4 160C237.067 162.333 238.133 164.6 239.6 166.8C241.067 168.933 243 170.933 245.4 172.8C247.867 174.6 250.867 176.167 254.4 177.5C258 178.833 262.2 179.833 267 180.5L260.8 193.3C255.333 192.367 250.467 191.033 246.2 189.3C242 187.5 238.367 185.367 235.3 182.9C232.233 180.367 229.7 177.533 227.7 174.4C225.7 171.267 224.2 167.9 223.2 164.3C222.267 160.633 221.8 156.8 221.8 152.8V148.8ZM191.6 142.7H262.2V155.4H191.6V142.7Z"/>
</mask>
<path d="M105.912 15.7H122.112V83.9H105.912V15.7ZM58.4117 95.3H124.212V108.1H58.4117V95.3ZM58.4117 77.2H74.5117V102.1H58.4117V77.2ZM64.2117 20.8H77.5117V29.7C77.5117 35.8333 76.6117 41.7333 74.8117 47.4C73.0784 53 70.2451 57.9333 66.3117 62.2C62.3784 66.4667 57.1451 69.6667 50.6117 71.8L42.5117 59C48.0451 57.2 52.3784 54.7333 55.5117 51.6C58.7117 48.4 60.9451 44.9 62.2117 41.1C63.5451 37.2333 64.2117 33.4333 64.2117 29.7V20.8ZM67.6117 20.8H80.7117V29.7C80.7117 32.5 81.0451 35.3 81.7117 38.1C82.3784 40.8333 83.5117 43.4667 85.1117 46C86.7117 48.4667 88.8451 50.7 91.5117 52.7C94.2451 54.7 97.6117 56.3 101.612 57.5L93.5117 70.3C87.1784 68.3 82.1117 65.2667 78.3117 61.2C74.5117 57.1333 71.7784 52.4 70.1117 47C68.4451 41.5333 67.6117 35.7667 67.6117 29.7V20.8ZM137.604 86.3H222.504V99.3H137.604V86.3ZM172.004 66.6H188.104V89.7H172.004V66.6ZM171.404 28.1H185.004V30.2C185.004 34.2 184.537 38.0333 183.604 41.7C182.671 45.3667 181.204 48.8 179.204 52C177.271 55.1333 174.771 57.9667 171.704 60.5C168.704 63.0333 165.104 65.2333 160.904 67.1C156.771 68.9 152.037 70.2667 146.704 71.2L140.404 58.4C145.137 57.6667 149.237 56.6333 152.704 55.3C156.171 53.9 159.104 52.2667 161.504 50.4C163.904 48.5333 165.804 46.5 167.204 44.3C168.671 42.0333 169.737 39.7333 170.404 37.4C171.071 35 171.404 32.6 171.404 30.2V28.1ZM174.804 28.1H188.404V30.2C188.404 32.6 188.737 34.9667 189.404 37.3C190.071 39.6333 191.137 41.9 192.604 44.1C194.071 46.3 196.004 48.3333 198.404 50.2C200.871 52 203.871 53.5667 207.404 54.9C211.004 56.2333 215.204 57.2333 220.004 57.9L213.804 70.6C208.337 69.6667 203.471 68.3333 199.204 66.6C195.004 64.8 191.371 62.6667 188.304 60.2C185.237 57.6667 182.704 54.8667 180.704 51.8C178.704 48.6667 177.204 45.3 176.204 41.7C175.271 38.0333 174.804 34.2 174.804 30.2V28.1ZM144.604 22H215.204V34.7H144.604V22ZM257.596 21.7C262.329 21.7 266.563 23.1 270.296 25.9C274.029 28.6333 276.963 32.5333 279.096 37.6C281.229 42.6667 282.296 48.6667 282.296 55.6C282.296 62.6 281.229 68.6667 279.096 73.8C276.963 78.8667 274.029 82.8 270.296 85.6C266.563 88.3333 262.329 89.7 257.596 89.7C252.863 89.7 248.629 88.3333 244.896 85.6C241.163 82.8 238.229 78.8667 236.096 73.8C233.963 68.6667 232.896 62.6 232.896 55.6C232.896 48.6667 233.963 42.6667 236.096 37.6C238.229 32.5333 241.163 28.6333 244.896 25.9C248.629 23.1 252.863 21.7 257.596 21.7ZM257.596 36.4C255.729 36.4 254.096 37.1 252.696 38.5C251.296 39.8333 250.196 41.9333 249.396 44.8C248.663 47.6 248.296 51.2 248.296 55.6C248.296 60 248.663 63.6333 249.396 66.5C250.196 69.3667 251.296 71.5 252.696 72.9C254.096 74.3 255.729 75 257.596 75C259.529 75 261.163 74.3 262.496 72.9C263.896 71.5 264.963 69.3667 265.696 66.5C266.496 63.6333 266.896 60 266.896 55.6C266.896 51.2 266.496 47.6 265.696 44.8C264.963 41.9333 263.896 39.8333 262.496 38.5C261.163 37.1 259.529 36.4 257.596 36.4ZM294.996 15.5H311.096V109.7H294.996V15.5ZM277.696 48.3H301.696V61.2H277.696V48.3ZM97.4078 141.3H136.808V154H97.4078V141.3ZM129.708 141.3H145.508V148.1C145.508 152.567 145.341 157.633 145.008 163.3C144.741 168.967 143.708 175.867 141.908 184H125.808C127.741 176 128.874 169.1 129.208 163.3C129.541 157.5 129.708 152.433 129.708 148.1V141.3ZM131.608 160.4V171.9L96.9078 174.7L94.9078 161.5L131.608 160.4ZM111.908 186.9H128.108V224.8H111.908V186.9ZM155.408 135.6H171.608V229.4H155.408V135.6ZM92.0078 194.8L90.1078 181.8C96.2411 181.8 102.708 181.767 109.508 181.7C116.374 181.567 123.341 181.333 130.408 181C137.474 180.6 144.341 180.033 151.008 179.3L152.108 191C145.241 192.067 138.341 192.867 131.408 193.4C124.474 193.933 117.674 194.3 111.008 194.5C104.408 194.633 98.0745 194.733 92.0078 194.8ZM184.6 205.9H269.5V218.9H184.6V205.9ZM218.4 148.8H232V152.8C232 156.8 231.533 160.633 230.6 164.3C229.667 167.967 228.2 171.4 226.2 174.6C224.267 177.733 221.767 180.6 218.7 183.2C215.7 185.733 212.1 187.933 207.9 189.8C203.767 191.6 199.033 192.967 193.7 193.9L187.4 181C192.133 180.267 196.233 179.233 199.7 177.9C203.167 176.5 206.1 174.867 208.5 173C210.9 171.133 212.8 169.1 214.2 166.9C215.667 164.7 216.733 162.4 217.4 160C218.067 157.6 218.4 155.2 218.4 152.8V148.8ZM221.8 148.8H235.4V152.8C235.4 155.2 235.733 157.6 236.4 160C237.067 162.333 238.133 164.6 239.6 166.8C241.067 168.933 243 170.933 245.4 172.8C247.867 174.6 250.867 176.167 254.4 177.5C258 178.833 262.2 179.833 267 180.5L260.8 193.3C255.333 192.367 250.467 191.033 246.2 189.3C242 187.5 238.367 185.367 235.3 182.9C232.233 180.367 229.7 177.533 227.7 174.4C225.7 171.267 224.2 167.9 223.2 164.3C222.267 160.633 221.8 156.8 221.8 152.8V148.8ZM191.6 142.7H262.2V155.4H191.6V142.7Z" fill="white"/>
<path d="M105.912 15.7V7.69999C101.493 7.69999 97.9117 11.2817 97.9117 15.7H105.912ZM122.112 15.7H130.112C130.112 11.2817 126.53 7.69999 122.112 7.69999V15.7ZM122.112 83.9V91.9C126.53 91.9 130.112 88.3183 130.112 83.9H122.112ZM105.912 83.9H97.9117C97.9117 88.3183 101.493 91.9 105.912 91.9V83.9ZM58.4117 95.3V87.3C53.9934 87.3 50.4117 90.8817 50.4117 95.3H58.4117ZM124.212 95.3H132.212C132.212 90.8817 128.63 87.3 124.212 87.3V95.3ZM124.212 108.1V116.1C128.63 116.1 132.212 112.518 132.212 108.1H124.212ZM58.4117 108.1H50.4117C50.4117 112.518 53.9934 116.1 58.4117 116.1V108.1ZM58.4117 77.2V69.2C53.9934 69.2 50.4117 72.7817 50.4117 77.2H58.4117ZM74.5117 77.2H82.5117C82.5117 72.7817 78.93 69.2 74.5117 69.2V77.2ZM74.5117 102.1V110.1C78.93 110.1 82.5117 106.518 82.5117 102.1H74.5117ZM58.4117 102.1H50.4117C50.4117 106.518 53.9934 110.1 58.4117 110.1V102.1ZM64.2117 20.8V12.8C59.7934 12.8 56.2117 16.3817 56.2117 20.8H64.2117ZM77.5117 20.8H85.5117C85.5117 16.3817 81.93 12.8 77.5117 12.8V20.8ZM74.8117 47.4L67.1871 44.9781C67.1812 44.9969 67.1753 45.0157 67.1694 45.0345L74.8117 47.4ZM66.3117 62.2L60.4298 56.7776L66.3117 62.2ZM50.6117 71.8L43.8516 76.0779C45.8088 79.1708 49.6155 80.541 53.0949 79.4048L50.6117 71.8ZM42.5117 59L40.037 51.3924C37.688 52.1565 35.8238 53.9629 34.986 56.2865C34.1481 58.6102 34.4307 61.1906 35.7516 63.2779L42.5117 59ZM55.5117 51.6L49.8549 45.9431L49.8549 45.9431L55.5117 51.6ZM62.2117 41.1L54.6487 38.4921C54.6398 38.5181 54.6309 38.5441 54.6223 38.5702L62.2117 41.1ZM67.6117 20.8V12.8C63.1934 12.8 59.6117 16.3817 59.6117 20.8H67.6117ZM80.7117 20.8H88.7117C88.7117 16.3817 85.13 12.8 80.7117 12.8V20.8ZM81.7117 38.1L73.9293 39.953C73.9327 39.9672 73.9361 39.9814 73.9396 39.9956L81.7117 38.1ZM85.1117 46L78.3478 50.2719C78.3651 50.2992 78.3825 50.3264 78.4 50.3535L85.1117 46ZM91.5117 52.7L86.7117 59.1C86.7369 59.1189 86.7622 59.1376 86.7876 59.1562L91.5117 52.7ZM101.612 57.5L108.372 61.7779C109.71 59.6632 109.982 57.0442 109.106 54.7C108.23 52.3558 106.307 50.5565 103.911 49.8374L101.612 57.5ZM93.5117 70.3L91.1027 77.9287C94.5653 79.0221 98.3301 77.6463 100.272 74.5779L93.5117 70.3ZM78.3117 61.2L72.4665 66.662L78.3117 61.2ZM70.1117 47L62.4595 49.333C62.4621 49.3418 62.4648 49.3505 62.4675 49.3593L70.1117 47ZM105.912 15.7V23.7H122.112V15.7V7.69999H105.912V15.7ZM122.112 15.7H114.112V83.9H122.112H130.112V15.7H122.112ZM122.112 83.9V75.9H105.912V83.9V91.9H122.112V83.9ZM105.912 83.9H113.912V15.7H105.912H97.9117V83.9H105.912ZM58.4117 95.3V103.3H124.212V95.3V87.3H58.4117V95.3ZM124.212 95.3H116.212V108.1H124.212H132.212V95.3H124.212ZM124.212 108.1V100.1H58.4117V108.1V116.1H124.212V108.1ZM58.4117 108.1H66.4117V95.3H58.4117H50.4117V108.1H58.4117ZM58.4117 77.2V85.2H74.5117V77.2V69.2H58.4117V77.2ZM74.5117 77.2H66.5117V102.1H74.5117H82.5117V77.2H74.5117ZM74.5117 102.1V94.1H58.4117V102.1V110.1H74.5117V102.1ZM58.4117 102.1H66.4117V77.2H58.4117H50.4117V102.1H58.4117ZM64.2117 20.8V28.8H77.5117V20.8V12.8H64.2117V20.8ZM77.5117 20.8H69.5117V29.7H77.5117H85.5117V20.8H77.5117ZM77.5117 29.7H69.5117C69.5117 35.0377 68.7305 40.1192 67.1871 44.9781L74.8117 47.4L82.4363 49.8219C84.4929 43.3474 85.5117 36.6289 85.5117 29.7H77.5117ZM74.8117 47.4L67.1694 45.0345C65.7844 49.5092 63.5477 53.3954 60.4298 56.7776L66.3117 62.2L72.1937 67.6224C76.9424 62.4713 80.3724 56.4908 82.454 49.7655L74.8117 47.4ZM66.3117 62.2L60.4298 56.7776C57.5816 59.8672 53.6013 62.4081 48.1285 64.1952L50.6117 71.8L53.0949 79.4048C60.6888 76.9252 67.1752 73.0662 72.1937 67.6224L66.3117 62.2ZM50.6117 71.8L57.3719 67.5221L49.2719 54.7221L42.5117 59L35.7516 63.2779L43.8516 76.0779L50.6117 71.8ZM42.5117 59L44.9865 66.6076C51.358 64.5349 56.9085 61.517 61.1686 57.2569L55.5117 51.6L49.8549 45.9431C47.8483 47.9497 44.7321 49.8651 40.037 51.3924L42.5117 59ZM55.5117 51.6L61.1686 57.2569C65.1319 53.2935 68.0934 48.7531 69.8012 43.6298L62.2117 41.1L54.6223 38.5702C53.7967 41.0469 52.2916 43.5065 49.8549 45.9431L55.5117 51.6ZM62.2117 41.1L69.7747 43.7079C71.3698 39.0821 72.2117 34.4016 72.2117 29.7H64.2117H56.2117C56.2117 32.465 55.7203 35.3845 54.6487 38.4921L62.2117 41.1ZM64.2117 29.7H72.2117V20.8H64.2117H56.2117V29.7H64.2117ZM67.6117 20.8V28.8H80.7117V20.8V12.8H67.6117V20.8ZM80.7117 20.8H72.7117V29.7H80.7117H88.7117V20.8H80.7117ZM80.7117 29.7H72.7117C72.7117 33.1413 73.1221 36.5629 73.9293 39.953L81.7117 38.1L89.4942 36.247C88.968 34.0371 88.7117 31.8587 88.7117 29.7H80.7117ZM81.7117 38.1L73.9396 39.9956C74.8244 43.6236 76.3155 47.0541 78.3478 50.2719L85.1117 46L91.8756 41.7281C90.708 39.8793 89.9324 38.0431 89.4839 36.2043L81.7117 38.1ZM85.1117 46L78.4 50.3535C80.5756 53.7075 83.392 56.6102 86.7117 59.1L91.5117 52.7L96.3117 46.3C94.2981 44.7898 92.8478 43.2258 91.8234 41.6465L85.1117 46ZM91.5117 52.7L86.7876 59.1562C90.4033 61.8019 94.6373 63.7599 99.3129 65.1626L101.612 57.5L103.911 49.8374C100.586 48.8401 98.0868 47.5981 96.2358 46.2438L91.5117 52.7ZM101.612 57.5L94.8516 53.2221L86.7516 66.0221L93.5117 70.3L100.272 74.5779L108.372 61.7779L101.612 57.5ZM93.5117 70.3L95.9208 62.6713C90.6463 61.0057 86.8506 58.6207 84.157 55.738L78.3117 61.2L72.4665 66.662C77.3728 71.9126 83.7105 75.5943 91.1027 77.9287L93.5117 70.3ZM78.3117 61.2L84.157 55.738C81.1968 52.5701 79.0712 48.9021 77.7559 44.6407L70.1117 47L62.4675 49.3593C64.4856 55.8979 67.8267 61.6966 72.4665 66.662L78.3117 61.2ZM70.1117 47L77.764 44.667C76.3416 40.0017 75.6117 35.0248 75.6117 29.7H67.6117H59.6117C59.6117 36.5086 60.5485 43.0649 62.4595 49.333L70.1117 47ZM67.6117 29.7H75.6117V20.8H67.6117H59.6117V29.7H67.6117ZM137.604 86.3V78.3C133.186 78.3 129.604 81.8817 129.604 86.3H137.604ZM222.504 86.3H230.504C230.504 81.8817 226.922 78.3 222.504 78.3V86.3ZM222.504 99.3V107.3C226.922 107.3 230.504 103.718 230.504 99.3H222.504ZM137.604 99.3H129.604C129.604 103.718 133.186 107.3 137.604 107.3V99.3ZM172.004 66.6V58.6C167.586 58.6 164.004 62.1817 164.004 66.6H172.004ZM188.104 66.6H196.104C196.104 62.1817 192.522 58.6 188.104 58.6V66.6ZM188.104 89.7V97.7C192.522 97.7 196.104 94.1183 196.104 89.7H188.104ZM172.004 89.7H164.004C164.004 94.1183 167.586 97.7 172.004 97.7V89.7ZM171.404 28.1V20.1C166.986 20.1 163.404 23.6817 163.404 28.1H171.404ZM185.004 28.1H193.004C193.004 23.6817 189.422 20.1 185.004 20.1V28.1ZM183.604 41.7L175.851 39.7266V39.7266L183.604 41.7ZM179.204 52L172.42 47.76C172.412 47.773 172.404 47.7861 172.396 47.7991L179.204 52ZM171.704 60.5L166.609 54.3323C166.587 54.3507 166.564 54.3692 166.542 54.3878L171.704 60.5ZM160.904 67.1L164.098 74.4347C164.116 74.4267 164.135 74.4186 164.153 74.4105L160.904 67.1ZM146.704 71.2L139.526 74.7328C141.096 77.922 144.582 79.693 148.083 79.0802L146.704 71.2ZM140.404 58.4L139.179 50.4943C136.663 50.8841 134.483 52.4483 133.307 54.7068C132.132 56.9653 132.102 59.6484 133.226 61.9328L140.404 58.4ZM152.704 55.3L155.576 62.7668C155.617 62.7508 155.658 62.7346 155.7 62.7179L152.704 55.3ZM161.504 50.4L166.415 56.7148V56.7148L161.504 50.4ZM167.204 44.3L160.487 39.954C160.476 39.9709 160.465 39.9879 160.455 40.005L167.204 44.3ZM170.404 37.4L178.096 39.5978C178.101 39.5789 178.107 39.56 178.112 39.5411L170.404 37.4ZM174.804 28.1V20.1C170.386 20.1 166.804 23.6817 166.804 28.1H174.804ZM188.404 28.1H196.404C196.404 23.6817 192.822 20.1 188.404 20.1V28.1ZM189.404 37.3L197.096 35.1022L189.404 37.3ZM198.404 50.2L193.492 56.5148C193.557 56.565 193.622 56.6142 193.688 56.6623L198.404 50.2ZM207.404 54.9L204.579 62.3848C204.595 62.3906 204.61 62.3963 204.625 62.402L207.404 54.9ZM220.004 57.9L227.193 61.4096C228.318 59.1058 228.27 56.4026 227.065 54.1398C225.86 51.877 223.644 50.3287 221.104 49.9761L220.004 57.9ZM213.804 70.6L212.458 78.4859C215.959 79.0836 219.435 77.3014 220.993 74.1096L213.804 70.6ZM199.204 66.6L196.053 73.9532C196.099 73.9731 196.146 73.9927 196.193 74.0117L199.204 66.6ZM188.304 60.2L183.209 66.3677C183.236 66.3899 183.263 66.4119 183.29 66.4337L188.304 60.2ZM180.704 51.8L173.961 56.1043C173.975 56.1263 173.989 56.1483 174.003 56.1701L180.704 51.8ZM176.204 41.7L168.451 43.6734C168.465 43.7295 168.48 43.7854 168.496 43.8411L176.204 41.7ZM144.604 22V14C140.186 14 136.604 17.5817 136.604 22H144.604ZM215.204 22H223.204C223.204 17.5817 219.622 14 215.204 14V22ZM215.204 34.7V42.7C219.622 42.7 223.204 39.1183 223.204 34.7H215.204ZM144.604 34.7H136.604C136.604 39.1183 140.186 42.7 144.604 42.7V34.7ZM137.604 86.3V94.3H222.504V86.3V78.3H137.604V86.3ZM222.504 86.3H214.504V99.3H222.504H230.504V86.3H222.504ZM222.504 99.3V91.3H137.604V99.3V107.3H222.504V99.3ZM137.604 99.3H145.604V86.3H137.604H129.604V99.3H137.604ZM172.004 66.6V74.6H188.104V66.6V58.6H172.004V66.6ZM188.104 66.6H180.104V89.7H188.104H196.104V66.6H188.104ZM188.104 89.7V81.7H172.004V89.7V97.7H188.104V89.7ZM172.004 89.7H180.004V66.6H172.004H164.004V89.7H172.004ZM171.404 28.1V36.1H185.004V28.1V20.1H171.404V28.1ZM185.004 28.1H177.004V30.2H185.004H193.004V28.1H185.004ZM185.004 30.2H177.004C177.004 33.5724 176.611 36.7406 175.851 39.7266L183.604 41.7L191.357 43.6734C192.463 39.326 193.004 34.8276 193.004 30.2H185.004ZM183.604 41.7L175.851 39.7266C175.121 42.5944 173.981 45.2628 172.42 47.76L179.204 52L185.988 56.24C188.427 52.3372 190.22 48.139 191.357 43.6734L183.604 41.7ZM179.204 52L172.396 47.7991C170.957 50.1299 169.055 52.3116 166.609 54.3323L171.704 60.5L176.799 66.6677C180.486 63.6217 183.584 60.1367 186.012 56.2009L179.204 52ZM171.704 60.5L166.542 54.3878C164.209 56.3586 161.278 58.179 157.655 59.7895L160.904 67.1L164.153 74.4105C168.929 72.2877 173.199 69.7081 176.865 66.6122L171.704 60.5ZM160.904 67.1L157.71 59.7653C154.26 61.2676 150.154 62.4746 145.325 63.3198L146.704 71.2L148.083 79.0802C153.92 78.0587 159.281 76.5324 164.098 74.4347L160.904 67.1ZM146.704 71.2L153.882 67.6672L147.582 54.8672L140.404 58.4L133.226 61.9328L139.526 74.7328L146.704 71.2ZM140.404 58.4L141.629 66.3057C146.772 65.5088 151.45 64.3535 155.576 62.7668L152.704 55.3L149.832 47.8332C147.024 48.9131 143.502 49.8246 139.179 50.4943L140.404 58.4ZM152.704 55.3L155.7 62.7179C159.702 61.1016 163.315 59.1262 166.415 56.7148L161.504 50.4L156.592 44.0852C154.893 45.4071 152.639 46.6984 149.708 47.8821L152.704 55.3ZM161.504 50.4L166.415 56.7148C169.422 54.3768 171.987 51.6852 173.953 48.595L167.204 44.3L160.455 40.005C159.621 41.3148 158.386 42.6899 156.592 44.0852L161.504 50.4ZM167.204 44.3L173.92 48.646C175.769 45.7892 177.189 42.7716 178.096 39.5978L170.404 37.4L162.712 35.2022C162.285 36.695 161.572 38.2774 160.487 39.954L167.204 44.3ZM170.404 37.4L178.112 39.5411C178.965 36.4704 179.404 33.3506 179.404 30.2H171.404H163.404C163.404 31.8494 163.176 33.5296 162.696 35.2588L170.404 37.4ZM171.404 30.2H179.404V28.1H171.404H163.404V30.2H171.404ZM174.804 28.1V36.1H188.404V28.1V20.1H174.804V28.1ZM188.404 28.1H180.404V30.2H188.404H196.404V28.1H188.404ZM188.404 30.2H180.404C180.404 33.3517 180.843 36.4577 181.712 39.4978L189.404 37.3L197.096 35.1022C196.631 33.4756 196.404 31.8483 196.404 30.2H188.404ZM189.404 37.3L181.712 39.4978C182.625 42.6948 184.063 45.7104 185.948 48.5376L192.604 44.1L199.26 39.6624C198.212 38.0895 197.516 36.5719 197.096 35.1022L189.404 37.3ZM192.604 44.1L185.948 48.5376C187.957 51.5512 190.514 54.1979 193.492 56.5148L198.404 50.2L203.315 43.8852C201.494 42.4687 200.185 41.0488 199.26 39.6624L192.604 44.1ZM198.404 50.2L193.688 56.6623C196.855 58.9729 200.525 60.8547 204.579 62.3848L207.404 54.9L210.228 47.4152C207.216 46.2786 204.887 45.0271 203.12 43.7377L198.404 50.2ZM207.404 54.9L204.625 62.402C208.887 63.9805 213.672 65.0974 218.903 65.8239L220.004 57.9L221.104 49.9761C216.736 49.3693 213.12 48.4862 210.182 47.398L207.404 54.9ZM220.004 57.9L212.815 54.3904L206.615 67.0904L213.804 70.6L220.993 74.1096L227.193 61.4096L220.004 57.9ZM213.804 70.6L215.15 62.7141C210.142 61.8591 205.85 60.665 202.215 59.1883L199.204 66.6L196.193 74.0117C201.091 76.0017 206.532 77.4742 212.458 78.4859L213.804 70.6ZM199.204 66.6L202.355 59.2468C198.719 57.6886 195.735 55.9104 193.318 53.9663L188.304 60.2L183.29 66.4337C187.006 69.4229 191.288 71.9114 196.053 73.9532L199.204 66.6ZM188.304 60.2L193.399 54.0323C190.902 51.9693 188.927 49.7638 187.405 47.4299L180.704 51.8L174.003 56.1701C176.481 59.9695 179.573 63.364 183.209 66.3677L188.304 60.2ZM180.704 51.8L187.447 47.4957C185.877 45.035 184.701 42.3979 183.912 39.5588L176.204 41.7L168.496 43.8411C169.707 48.2021 171.531 52.2983 173.961 56.1043L180.704 51.8ZM176.204 41.7L183.957 39.7266C183.197 36.7406 182.804 33.5724 182.804 30.2H174.804H166.804C166.804 34.8276 167.345 39.326 168.451 43.6734L176.204 41.7ZM174.804 30.2H182.804V28.1H174.804H166.804V30.2H174.804ZM144.604 22V30H215.204V22V14H144.604V22ZM215.204 22H207.204V34.7H215.204H223.204V22H215.204ZM215.204 34.7V26.7H144.604V34.7V42.7H215.204V34.7ZM144.604 34.7H152.604V22H144.604H136.604V34.7H144.604ZM270.296 25.9L265.496 32.3C265.521 32.3184 265.545 32.3367 265.57 32.3549L270.296 25.9ZM279.096 37.6L271.723 40.7045L271.723 40.7045L279.096 37.6ZM279.096 73.8L286.469 76.9045C286.474 76.893 286.479 76.8816 286.484 76.8701L279.096 73.8ZM270.296 85.6L275.022 92.0549C275.047 92.0367 275.072 92.0184 275.096 92L270.296 85.6ZM244.896 85.6L240.096 92C240.121 92.0184 240.145 92.0367 240.17 92.0549L244.896 85.6ZM236.096 73.8L228.709 76.8701C228.713 76.8816 228.718 76.893 228.723 76.9045L236.096 73.8ZM236.096 37.6L243.469 40.7045V40.7045L236.096 37.6ZM244.896 25.9L249.622 32.3549C249.647 32.3367 249.672 32.3184 249.696 32.3L244.896 25.9ZM252.696 38.5L258.213 44.2931C258.26 44.2483 258.307 44.2028 258.353 44.1568L252.696 38.5ZM249.396 44.8L241.691 42.6496C241.679 42.6907 241.668 42.7319 241.657 42.7731L249.396 44.8ZM249.396 66.5L241.646 68.4827C241.66 68.5387 241.675 68.5946 241.691 68.6504L249.396 66.5ZM252.696 72.9L258.353 67.2431V67.2431L252.696 72.9ZM262.496 72.9L256.839 67.2431C256.793 67.2891 256.748 67.3357 256.703 67.3828L262.496 72.9ZM265.696 66.5L257.991 64.3496C257.975 64.4053 257.96 64.4613 257.946 64.5173L265.696 66.5ZM265.696 44.8L257.946 46.7827C257.964 46.8546 257.983 46.9263 258.004 46.9978L265.696 44.8ZM262.496 38.5L256.703 44.0172C256.793 44.1114 256.885 44.2034 256.979 44.2931L262.496 38.5ZM294.996 15.5V7.5C290.578 7.5 286.996 11.0817 286.996 15.5H294.996ZM311.096 15.5H319.096C319.096 11.0817 315.514 7.5 311.096 7.5V15.5ZM311.096 109.7V117.7C315.514 117.7 319.096 114.118 319.096 109.7H311.096ZM294.996 109.7H286.996C286.996 114.118 290.578 117.7 294.996 117.7V109.7ZM277.696 48.3V40.3C273.278 40.3 269.696 43.8817 269.696 48.3H277.696ZM301.696 48.3H309.696C309.696 43.8817 306.114 40.3 301.696 40.3V48.3ZM301.696 61.2V69.2C306.114 69.2 309.696 65.6183 309.696 61.2H301.696ZM277.696 61.2H269.696C269.696 65.6183 273.278 69.2 277.696 69.2V61.2ZM257.596 21.7V29.7C260.625 29.7 263.169 30.5545 265.496 32.3L270.296 25.9L275.096 19.5C269.957 15.6455 264.034 13.7 257.596 13.7V21.7ZM270.296 25.9L265.57 32.3549C267.93 34.0829 270.046 36.7206 271.723 40.7045L279.096 37.6L286.469 34.4955C283.88 28.3461 280.128 23.1837 275.022 19.4451L270.296 25.9ZM279.096 37.6L271.723 40.7045C273.35 44.5681 274.296 49.4645 274.296 55.6H282.296H290.296C290.296 47.8688 289.109 40.7653 286.469 34.4955L279.096 37.6ZM282.296 55.6H274.296C274.296 61.8095 273.348 66.7863 271.709 70.7299L279.096 73.8L286.484 76.8701C289.111 70.547 290.296 63.3905 290.296 55.6H282.296ZM279.096 73.8L271.723 70.6955C270.041 74.6896 267.907 77.3917 265.496 79.2L270.296 85.6L275.096 92C280.152 88.2083 283.884 83.0438 286.469 76.9045L279.096 73.8ZM270.296 85.6L265.57 79.1451C263.242 80.85 260.672 81.7 257.596 81.7V89.7V97.7C263.987 97.7 269.884 95.8166 275.022 92.0549L270.296 85.6ZM257.596 89.7V81.7C254.52 81.7 251.951 80.85 249.622 79.1451L244.896 85.6L240.17 92.0549C245.308 95.8166 251.205 97.7 257.596 97.7V89.7ZM244.896 85.6L249.696 79.2C247.285 77.3917 245.151 74.6896 243.469 70.6955L236.096 73.8L228.723 76.9045C231.308 83.0438 235.041 88.2083 240.096 92L244.896 85.6ZM236.096 73.8L243.484 70.7299C241.845 66.7863 240.896 61.8095 240.896 55.6H232.896H224.896C224.896 63.3905 226.081 70.547 228.709 76.8701L236.096 73.8ZM232.896 55.6H240.896C240.896 49.4645 241.842 44.5681 243.469 40.7045L236.096 37.6L228.723 34.4955C226.083 40.7653 224.896 47.8688 224.896 55.6H232.896ZM236.096 37.6L243.469 40.7045C245.147 36.7206 247.262 34.0829 249.622 32.3549L244.896 25.9L240.17 19.4451C235.064 23.1837 231.312 28.3461 228.723 34.4955L236.096 37.6ZM244.896 25.9L249.696 32.3C252.023 30.5545 254.567 29.7 257.596 29.7V21.7V13.7C251.158 13.7 245.235 15.6455 240.096 19.5L244.896 25.9ZM257.596 36.4V28.4C253.469 28.4 249.839 30.0439 247.039 32.8431L252.696 38.5L258.353 44.1568C258.415 44.0945 258.342 44.1839 258.122 44.2782C258.02 44.3223 257.912 44.3552 257.809 44.3759C257.707 44.3963 257.632 44.4 257.596 44.4V36.4ZM252.696 38.5L247.179 32.7069C244.316 35.4334 242.686 39.0822 241.691 42.6496L249.396 44.8L257.102 46.9504C257.387 45.9274 257.674 45.2325 257.908 44.7871C258.14 44.3431 258.271 44.2378 258.213 44.2931L252.696 38.5ZM249.396 44.8L241.657 42.7731C240.686 46.4827 240.296 50.8312 240.296 55.6H248.296H256.296C256.296 51.5688 256.64 48.7173 257.135 46.8269L249.396 44.8ZM248.296 55.6H240.296C240.296 60.3779 240.687 64.7366 241.646 68.4827L249.396 66.5L257.147 64.5173C256.638 62.5301 256.296 59.6221 256.296 55.6H248.296ZM249.396 66.5L241.691 68.6504C242.689 72.2269 244.297 75.8142 247.039 78.5569L252.696 72.9L258.353 67.2431C258.296 67.1858 257.704 66.5064 257.102 64.3496L249.396 66.5ZM252.696 72.9L247.039 78.5568C249.839 81.3561 253.469 83 257.596 83V75V67C257.632 67 257.707 67.0037 257.809 67.0241C257.912 67.0447 258.02 67.0777 258.122 67.1218C258.342 67.216 258.415 67.3055 258.353 67.2431L252.696 72.9ZM257.596 75V83C261.719 83 265.446 81.4027 268.289 78.4172L262.496 72.9L256.703 67.3828C256.703 67.3829 256.712 67.3731 256.732 67.3561C256.751 67.3391 256.78 67.3159 256.818 67.2891C256.896 67.2335 256.999 67.1738 257.12 67.1218C257.241 67.0699 257.355 67.0371 257.449 67.0185C257.495 67.0096 257.531 67.0049 257.557 67.0024C257.583 67 257.596 67 257.596 67V75ZM262.496 72.9L268.153 78.5569C270.95 75.7599 272.521 72.1009 273.447 68.4827L265.696 66.5L257.946 64.5173C257.688 65.5252 257.417 66.219 257.191 66.6723C256.966 67.1222 256.821 67.2609 256.839 67.2431L262.496 72.9ZM265.696 66.5L273.402 68.6504C274.466 64.8361 274.896 60.415 274.896 55.6H266.896H258.896C258.896 59.585 258.526 62.4306 257.991 64.3496L265.696 66.5ZM266.896 55.6H274.896C274.896 50.7947 274.468 46.382 273.388 42.6022L265.696 44.8L258.004 46.9978C258.524 48.818 258.896 51.6053 258.896 55.6H266.896ZM265.696 44.8L273.447 42.8173C272.524 39.21 270.933 35.4875 268.013 32.7069L262.496 38.5L256.979 44.2931C256.895 44.2135 257.005 44.2869 257.213 44.6979C257.424 45.1125 257.689 45.7795 257.946 46.7827L265.696 44.8ZM262.496 38.5L268.289 32.9828C265.446 29.9973 261.719 28.4 257.596 28.4V36.4V44.4C257.596 44.4 257.583 44.4 257.557 44.3976C257.531 44.3951 257.495 44.3904 257.449 44.3815C257.355 44.3629 257.241 44.3301 257.12 44.2782C256.999 44.2262 256.896 44.1665 256.818 44.1109C256.78 44.0841 256.751 44.0609 256.732 44.0439C256.712 44.0269 256.703 44.0171 256.703 44.0172L262.496 38.5ZM294.996 15.5V23.5H311.096V15.5V7.5H294.996V15.5ZM311.096 15.5H303.096V109.7H311.096H319.096V15.5H311.096ZM311.096 109.7V101.7H294.996V109.7V117.7H311.096V109.7ZM294.996 109.7H302.996V15.5H294.996H286.996V109.7H294.996ZM277.696 48.3V56.3H301.696V48.3V40.3H277.696V48.3ZM301.696 48.3H293.696V61.2H301.696H309.696V48.3H301.696ZM301.696 61.2V53.2H277.696V61.2V69.2H301.696V61.2ZM277.696 61.2H285.696V48.3H277.696H269.696V61.2H277.696ZM97.4078 141.3V133.3C92.9895 133.3 89.4078 136.882 89.4078 141.3H97.4078ZM136.808 141.3H144.808C144.808 136.882 141.226 133.3 136.808 133.3V141.3ZM136.808 154V162C141.226 162 144.808 158.418 144.808 154H136.808ZM97.4078 154H89.4078C89.4078 158.418 92.9895 162 97.4078 162V154ZM129.708 141.3V133.3C125.29 133.3 121.708 136.882 121.708 141.3H129.708ZM145.508 141.3H153.508C153.508 136.882 149.926 133.3 145.508 133.3V141.3ZM145.008 163.3L137.022 162.83C137.02 162.861 137.018 162.893 137.017 162.924L145.008 163.3ZM141.908 184V192C145.66 192 148.908 189.392 149.719 185.729L141.908 184ZM125.808 184L118.032 182.121C117.456 184.505 118.005 187.021 119.522 188.948C121.038 190.875 123.355 192 125.808 192V184ZM131.608 160.4H139.608C139.608 158.237 138.732 156.166 137.179 154.659C135.627 153.152 133.53 152.339 131.368 152.404L131.608 160.4ZM131.608 171.9L132.251 179.874C136.407 179.539 139.608 176.069 139.608 171.9H131.608ZM96.9078 174.7L88.9981 175.898C89.6275 180.053 93.3633 183.012 97.5513 182.674L96.9078 174.7ZM94.9078 161.5L94.6681 153.504C92.38 153.572 90.2309 154.618 88.7646 156.376C87.2982 158.133 86.6552 160.435 86.9981 162.698L94.9078 161.5ZM111.908 186.9V178.9C107.49 178.9 103.908 182.482 103.908 186.9H111.908ZM128.108 186.9H136.108C136.108 182.482 132.526 178.9 128.108 178.9V186.9ZM128.108 224.8V232.8C132.526 232.8 136.108 229.218 136.108 224.8H128.108ZM111.908 224.8H103.908C103.908 229.218 107.49 232.8 111.908 232.8V224.8ZM155.408 135.6V127.6C150.99 127.6 147.408 131.182 147.408 135.6H155.408ZM171.608 135.6H179.608C179.608 131.182 176.026 127.6 171.608 127.6V135.6ZM171.608 229.4V237.4C176.026 237.4 179.608 233.818 179.608 229.4H171.608ZM155.408 229.4H147.408C147.408 233.818 150.99 237.4 155.408 237.4V229.4ZM92.0078 194.8L84.0919 195.957C84.6711 199.92 88.0912 202.844 92.0957 202.8L92.0078 194.8ZM90.1078 181.8V173.8C87.7842 173.8 85.5753 174.81 84.0557 176.568C82.5361 178.326 81.8559 180.658 82.1919 182.957L90.1078 181.8ZM109.508 181.7L109.586 189.7C109.612 189.699 109.637 189.699 109.663 189.698L109.508 181.7ZM130.408 181L130.785 188.991C130.81 188.99 130.835 188.989 130.86 188.987L130.408 181ZM151.008 179.3L158.973 178.551C158.772 176.417 157.723 174.452 156.061 173.098C154.4 171.744 152.264 171.114 150.133 171.348L151.008 179.3ZM152.108 191L153.336 198.905C157.517 198.256 160.469 194.463 160.073 190.251L152.108 191ZM131.408 193.4L132.021 201.376H132.021L131.408 193.4ZM111.008 194.5L111.169 202.498C111.196 202.498 111.222 202.497 111.248 202.496L111.008 194.5ZM97.4078 141.3V149.3H136.808V141.3V133.3H97.4078V141.3ZM136.808 141.3H128.808V154H136.808H144.808V141.3H136.808ZM136.808 154V146H97.4078V154V162H136.808V154ZM97.4078 154H105.408V141.3H97.4078H89.4078V154H97.4078ZM129.708 141.3V149.3H145.508V141.3V133.3H129.708V141.3ZM145.508 141.3H137.508V148.1H145.508H153.508V141.3H145.508ZM145.508 148.1H137.508C137.508 152.375 137.348 157.28 137.022 162.83L145.008 163.3L152.994 163.77C153.334 157.986 153.508 152.759 153.508 148.1H145.508ZM145.008 163.3L137.017 162.924C136.779 167.978 135.839 174.397 134.097 182.271L141.908 184L149.719 185.729C151.576 177.336 152.703 169.955 152.999 163.676L145.008 163.3ZM141.908 184V176H125.808V184V192H141.908V184ZM125.808 184L133.584 185.879C135.588 177.589 136.825 170.19 137.195 163.759L129.208 163.3L121.221 162.841C120.924 168.01 119.895 174.411 118.032 182.121L125.808 184ZM129.208 163.3L137.195 163.759C137.534 157.854 137.708 152.628 137.708 148.1H129.708H121.708C121.708 152.239 121.548 157.146 121.221 162.841L129.208 163.3ZM129.708 148.1H137.708V141.3H129.708H121.708V148.1H129.708ZM131.608 160.4H123.608V171.9H131.608H139.608V160.4H131.608ZM131.608 171.9L130.964 163.926L96.2644 166.726L96.9078 174.7L97.5513 182.674L132.251 179.874L131.608 171.9ZM96.9078 174.7L104.818 173.502L102.818 160.302L94.9078 161.5L86.9981 162.698L88.9981 175.898L96.9078 174.7ZM94.9078 161.5L95.1475 169.496L131.847 168.396L131.608 160.4L131.368 152.404L94.6681 153.504L94.9078 161.5ZM111.908 186.9V194.9H128.108V186.9V178.9H111.908V186.9ZM128.108 186.9H120.108V224.8H128.108H136.108V186.9H128.108ZM128.108 224.8V216.8H111.908V224.8V232.8H128.108V224.8ZM111.908 224.8H119.908V186.9H111.908H103.908V224.8H111.908ZM155.408 135.6V143.6H171.608V135.6V127.6H155.408V135.6ZM171.608 135.6H163.608V229.4H171.608H179.608V135.6H171.608ZM171.608 229.4V221.4H155.408V229.4V237.4H171.608V229.4ZM155.408 229.4H163.408V135.6H155.408H147.408V229.4H155.408ZM92.0078 194.8L99.9237 193.643L98.0237 180.643L90.1078 181.8L82.1919 182.957L84.0919 195.957L92.0078 194.8ZM90.1078 181.8V189.8C96.2699 189.8 102.763 189.767 109.586 189.7L109.508 181.7L109.429 173.7C102.653 173.767 96.2124 173.8 90.1078 173.8V181.8ZM109.508 181.7L109.663 189.698C116.606 189.564 123.646 189.328 130.785 188.991L130.408 181L130.031 173.009C123.036 173.339 116.143 173.57 109.353 173.702L109.508 181.7ZM130.408 181L130.86 188.987C138.06 188.58 145.068 188.002 151.883 187.252L151.008 179.3L150.133 171.348C143.614 172.065 136.889 172.62 129.956 173.013L130.408 181ZM151.008 179.3L143.043 180.049L144.143 191.749L152.108 191L160.073 190.251L158.973 178.551L151.008 179.3ZM152.108 191L150.88 183.095C144.217 184.13 137.522 184.906 130.794 185.424L131.408 193.4L132.021 201.376C139.16 200.827 146.265 200.004 153.336 198.905L152.108 191ZM131.408 193.4L130.794 185.424C123.98 185.948 117.305 186.307 110.768 186.504L111.008 194.5L111.248 202.496C118.044 202.293 124.969 201.919 132.021 201.376L131.408 193.4ZM111.008 194.5L110.846 186.502C104.269 186.635 97.96 186.734 91.9199 186.8L92.0078 194.8L92.0957 202.8C98.189 202.733 104.547 202.632 111.169 202.498L111.008 194.5ZM184.6 205.9V197.9C180.182 197.9 176.6 201.482 176.6 205.9H184.6ZM269.5 205.9H277.5C277.5 201.482 273.918 197.9 269.5 197.9V205.9ZM269.5 218.9V226.9C273.918 226.9 277.5 223.318 277.5 218.9H269.5ZM184.6 218.9H176.6C176.6 223.318 180.182 226.9 184.6 226.9V218.9ZM218.4 148.8V140.8C213.982 140.8 210.4 144.382 210.4 148.8H218.4ZM232 148.8H240C240 144.382 236.418 140.8 232 140.8V148.8ZM230.6 164.3L222.847 162.327V162.327L230.6 164.3ZM226.2 174.6L219.416 170.36C219.408 170.373 219.4 170.386 219.392 170.399L226.2 174.6ZM218.7 183.2L223.861 189.312C223.865 189.309 223.869 189.305 223.873 189.302L218.7 183.2ZM207.9 189.8L211.094 197.135C211.112 197.127 211.131 197.119 211.149 197.11L207.9 189.8ZM193.7 193.9L186.511 197.411C188.075 200.613 191.569 202.395 195.079 201.78L193.7 193.9ZM187.4 181L186.175 173.094C183.663 173.483 181.486 175.043 180.309 177.296C179.132 179.549 179.096 182.227 180.211 184.511L187.4 181ZM199.7 177.9L202.572 185.367C202.613 185.351 202.655 185.335 202.696 185.318L199.7 177.9ZM208.5 173L203.588 166.685L208.5 173ZM214.2 166.9L207.544 162.462C207.512 162.51 207.481 162.557 207.451 162.605L214.2 166.9ZM217.4 160L225.108 162.141V162.141L217.4 160ZM221.8 148.8V140.8C217.382 140.8 213.8 144.382 213.8 148.8H221.8ZM235.4 148.8H243.4C243.4 144.382 239.818 140.8 235.4 140.8V148.8ZM236.4 160L228.692 162.141C228.697 162.16 228.702 162.179 228.708 162.198L236.4 160ZM239.6 166.8L232.944 171.238C232.965 171.269 232.986 171.301 233.008 171.332L239.6 166.8ZM245.4 172.8L240.488 179.115C240.553 179.165 240.618 179.214 240.684 179.262L245.4 172.8ZM254.4 177.5L251.576 184.985C251.591 184.991 251.606 184.996 251.621 185.002L254.4 177.5ZM267 180.5L274.2 183.987C275.316 181.684 275.262 178.986 274.055 176.729C272.849 174.472 270.636 172.928 268.101 172.576L267 180.5ZM260.8 193.3L259.454 201.186C262.964 201.785 266.448 199.992 268 196.787L260.8 193.3ZM246.2 189.3L243.049 196.653C243.095 196.673 243.142 196.693 243.189 196.712L246.2 189.3ZM235.3 182.9L230.205 189.068C230.232 189.09 230.259 189.112 230.286 189.134L235.3 182.9ZM227.7 174.4L234.443 170.096L227.7 174.4ZM223.2 164.3L215.447 166.273C215.462 166.329 215.476 166.385 215.492 166.441L223.2 164.3ZM191.6 142.7V134.7C187.182 134.7 183.6 138.282 183.6 142.7H191.6ZM262.2 142.7H270.2C270.2 138.282 266.618 134.7 262.2 134.7V142.7ZM262.2 155.4V163.4C266.618 163.4 270.2 159.818 270.2 155.4H262.2ZM191.6 155.4H183.6C183.6 159.818 187.182 163.4 191.6 163.4V155.4ZM184.6 205.9V213.9H269.5V205.9V197.9H184.6V205.9ZM269.5 205.9H261.5V218.9H269.5H277.5V205.9H269.5ZM269.5 218.9V210.9H184.6V218.9V226.9H269.5V218.9ZM184.6 218.9H192.6V205.9H184.6H176.6V218.9H184.6ZM218.4 148.8V156.8H232V148.8V140.8H218.4V148.8ZM232 148.8H224V152.8H232H240V148.8H232ZM232 152.8H224C224 156.172 223.607 159.341 222.847 162.327L230.6 164.3L238.353 166.273C239.459 161.926 240 157.428 240 152.8H232ZM230.6 164.3L222.847 162.327C222.117 165.194 220.977 167.863 219.416 170.36L226.2 174.6L232.984 178.84C235.423 174.937 237.216 170.739 238.353 166.273L230.6 164.3ZM226.2 174.6L219.392 170.399C217.939 172.754 216.01 174.992 213.527 177.098L218.7 183.2L223.873 189.302C227.523 186.208 230.595 182.713 233.008 178.801L226.2 174.6ZM218.7 183.2L213.539 177.088C211.205 179.059 208.275 180.879 204.651 182.49L207.9 189.8L211.149 197.11C215.925 194.988 220.195 192.408 223.861 189.312L218.7 183.2ZM207.9 189.8L204.706 182.465C201.256 183.968 197.15 185.175 192.321 186.02L193.7 193.9L195.079 201.78C200.916 200.759 206.277 199.232 211.094 197.135L207.9 189.8ZM193.7 193.9L200.889 190.389L194.589 177.489L187.4 181L180.211 184.511L186.511 197.411L193.7 193.9ZM187.4 181L188.625 188.906C193.768 188.109 198.446 186.954 202.572 185.367L199.7 177.9L196.828 170.433C194.02 171.513 190.498 172.425 186.175 173.094L187.4 181ZM199.7 177.9L202.696 185.318C206.698 183.702 210.311 181.726 213.412 179.315L208.5 173L203.588 166.685C201.889 168.007 199.635 169.298 196.704 170.482L199.7 177.9ZM208.5 173L213.412 179.315C216.418 176.977 218.983 174.285 220.949 171.195L214.2 166.9L207.451 162.605C206.617 163.915 205.382 165.29 203.588 166.685L208.5 173ZM214.2 166.9L220.856 171.338C222.764 168.476 224.201 165.406 225.108 162.141L217.4 160L209.692 157.859C209.266 159.394 208.569 160.924 207.544 162.462L214.2 166.9ZM217.4 160L225.108 162.141C225.961 159.07 226.4 155.951 226.4 152.8H218.4H210.4C210.4 154.449 210.172 156.13 209.692 157.859L217.4 160ZM218.4 152.8H226.4V148.8H218.4H210.4V152.8H218.4ZM221.8 148.8V156.8H235.4V148.8V140.8H221.8V148.8ZM235.4 148.8H227.4V152.8H235.4H243.4V148.8H235.4ZM235.4 152.8H227.4C227.4 155.951 227.839 159.07 228.692 162.141L236.4 160L244.108 157.859C243.628 156.13 243.4 154.449 243.4 152.8H235.4ZM236.4 160L228.708 162.198C229.621 165.395 231.059 168.41 232.944 171.238L239.6 166.8L246.256 162.362C245.208 160.79 244.512 159.272 244.092 157.802L236.4 160ZM239.6 166.8L233.008 171.332C235.013 174.249 237.55 176.829 240.488 179.115L245.4 172.8L250.312 166.485C248.45 165.037 247.121 163.618 246.192 162.268L239.6 166.8ZM245.4 172.8L240.684 179.262C243.851 181.573 247.521 183.455 251.576 184.985L254.4 177.5L257.224 170.015C254.213 168.879 251.883 167.627 250.116 166.338L245.4 172.8ZM254.4 177.5L251.621 185.002C255.883 186.58 260.668 187.697 265.899 188.424L267 180.5L268.101 172.576C263.732 171.969 260.117 171.086 257.179 169.998L254.4 177.5ZM267 180.5L259.8 177.013L253.6 189.813L260.8 193.3L268 196.787L274.2 183.987L267 180.5ZM260.8 193.3L262.146 185.414C257.139 184.559 252.846 183.365 249.211 181.888L246.2 189.3L243.189 196.712C248.087 198.702 253.528 200.174 259.454 201.186L260.8 193.3ZM246.2 189.3L249.351 181.947C245.715 180.389 242.731 178.61 240.314 176.666L235.3 182.9L230.286 189.134C234.002 192.123 238.285 194.611 243.049 196.653L246.2 189.3ZM235.3 182.9L240.395 176.732C237.927 174.693 235.964 172.478 234.443 170.096L227.7 174.4L220.957 178.704C223.436 182.589 226.54 186.04 230.205 189.068L235.3 182.9ZM227.7 174.4L234.443 170.096C232.873 167.635 231.697 164.998 230.908 162.159L223.2 164.3L215.492 166.441C216.703 170.802 218.527 174.898 220.957 178.704L227.7 174.4ZM223.2 164.3L230.953 162.327C230.193 159.341 229.8 156.172 229.8 152.8H221.8H213.8C213.8 157.428 214.341 161.926 215.447 166.273L223.2 164.3ZM221.8 152.8H229.8V148.8H221.8H213.8V152.8H221.8ZM191.6 142.7V150.7H262.2V142.7V134.7H191.6V142.7ZM262.2 142.7H254.2V155.4H262.2H270.2V142.7H262.2ZM262.2 155.4V147.4H191.6V155.4V163.4H262.2V155.4ZM191.6 155.4H199.6V142.7H191.6H183.6V155.4H191.6Z" fill="black" mask="url(#path-1-outside-1_198_36)"/>
<path d="M316.279 153.435C317.611 150.058 322.389 150.058 323.721 153.435L330.676 171.07C331.083 172.101 331.899 172.917 332.93 173.324L350.565 180.279C353.942 181.611 353.942 186.389 350.565 187.721L332.93 194.676C331.899 195.083 331.083 195.899 330.676 196.93L323.721 214.565C322.389 217.942 317.611 217.942 316.279 214.565L309.324 196.93C308.917 195.899 308.101 195.083 307.07 194.676L289.435 187.721C286.058 186.389 286.058 181.611 289.435 180.279L307.07 173.324C308.101 172.917 308.917 172.101 309.324 171.07L316.279 153.435Z" fill="#F4B938" stroke="black" stroke-width="8" stroke-linejoin="round"/>
<path d="M36.2789 153.435C37.6106 150.058 42.3894 150.058 43.7211 153.435L50.6763 171.07C51.0829 172.101 51.8989 172.917 52.9298 173.324L70.5651 180.279C73.9417 181.611 73.9417 186.389 70.5651 187.721L52.9298 194.676C51.8989 195.083 51.0829 195.899 50.6763 196.93L43.7211 214.565C42.3894 217.942 37.6106 217.942 36.2789 214.565L29.3237 196.93C28.9171 195.899 28.1011 195.083 27.0702 194.676L9.43486 187.721C6.05828 186.389 6.05828 181.611 9.43486 180.279L27.0702 173.324C28.1011 172.917 28.9171 172.101 29.3237 171.07L36.2789 153.435Z" fill="#F4B938" stroke="black" stroke-width="8" stroke-linejoin="round"/>
</svg>
